<svg width="32" height="27" viewBox="0 0 32 27" fill="none" xmlns="http://www.w3.org/2000/svg">
<path d="M31.4608 9.90217V10.4891C31.4608 13.4239 29.9282 16.0326 27.5477 17.663C25.9499 18.7391 23.9934 19.3913 21.9064 19.3913C19.2325 19.3913 16.5586 19.3913 13.8847 19.3913H13.6564C4.75425 19.7174 0.808594 25 0.808594 25V9.90217C0.808594 5.01087 5.11294 1 10.3629 1H21.9064C27.1564 1 31.4608 5.01087 31.4608 9.90217Z" fill="#C00D0D" stroke="white" stroke-miterlimit="10"/>
<path d="M8.14498 11.9894C9.06345 11.9894 9.80802 11.2594 9.80802 10.359C9.80802 9.45849 9.06345 8.72852 8.14498 8.72852C7.2265 8.72852 6.48193 9.45849 6.48193 10.359C6.48193 11.2594 7.2265 11.9894 8.14498 11.9894Z" fill="#C00D0D" stroke="white" stroke-miterlimit="10"/>
<path d="M16.1679 11.9894C17.0864 11.9894 17.831 11.2594 17.831 10.359C17.831 9.45849 17.0864 8.72852 16.1679 8.72852C15.2495 8.72852 14.5049 9.45849 14.5049 10.359C14.5049 11.2594 15.2495 11.9894 16.1679 11.9894Z" fill="#C00D0D" stroke="white" stroke-miterlimit="10"/>
<path d="M23.8305 11.9894C24.749 11.9894 25.4936 11.2594 25.4936 10.359C25.4936 9.45849 24.749 8.72852 23.8305 8.72852C22.912 8.72852 22.1675 9.45849 22.1675 10.359C22.1675 11.2594 22.912 11.9894 23.8305 11.9894Z" fill="#C00D0D" stroke="white" stroke-miterlimit="10"/>
</svg>
