<svg width="243" height="45" viewBox="0 0 243 45" fill="none" xmlns="http://www.w3.org/2000/svg">
<path d="M42.1906 6.96143C40.6855 6.96143 39.1805 7.16032 37.7725 7.55811V14.1714C39.1319 13.525 40.5884 13.1769 42.1906 13.1769C46.9487 13.1769 50.9299 16.4089 52.2408 20.8343H37.7725V27.0498H58.4068C58.601 26.0056 58.6981 24.9614 58.6981 23.9172C58.6981 14.5194 51.3183 6.96143 42.1906 6.96143Z" fill="white"/>
<path d="M42.1906 34.6075C40.637 34.6075 39.1319 34.2595 37.7725 33.6131V40.2263C39.1805 40.6241 40.637 40.823 42.1906 40.823C49.1335 40.823 55.1053 36.3976 57.5329 30.1821H50.6386C48.7451 32.8672 45.6378 34.6075 42.1906 34.6075Z" fill="white"/>
<path d="M15.8763 15.3646L7.96244 7.01099H0L15.8763 23.8673L25.6352 13.4253V23.8673V24.7623C25.6837 26.0054 25.8779 27.1988 26.2178 28.3424C27.1403 31.7734 29.0823 34.7568 31.7041 36.9446V36.5966V36.5469V23.917V23.8176V10.79V7.01099H23.7417L15.8763 15.3646Z" fill="white"/>
<path d="M71.0303 22.0276V7.35913H74.3318L79.1869 13.4751L83.7993 7.35913H87.0037V22.0276H83.3623V13.0774L79.1384 18.547H79.0413L74.6716 13.0774V22.0276H71.0303Z" fill="white"/>
<path d="M92.8296 20.1879C91.3731 18.7459 90.6934 16.9062 90.6934 14.6686C90.6934 12.431 91.4216 10.5913 92.8296 9.14927C94.2862 7.70728 96.1311 6.96143 98.4616 6.96143C100.792 6.96143 102.686 7.70728 104.094 9.14927C105.55 10.5913 106.23 12.431 106.23 14.6686C106.23 16.9062 105.502 18.7459 104.094 20.1879C102.637 21.6299 100.792 22.3758 98.4616 22.3758C96.1311 22.3758 94.2862 21.6299 92.8296 20.1879ZM94.5775 14.6686C94.5775 15.9117 94.9659 16.9062 95.6942 17.7017C96.4224 18.4973 97.3449 18.8951 98.4616 18.8951C99.6268 18.8951 100.549 18.4973 101.278 17.7515C102.006 16.9559 102.394 15.9614 102.394 14.7183C102.394 13.525 102.006 12.4808 101.278 11.7349C100.549 10.9393 99.5783 10.5415 98.4616 10.5415C97.3449 10.5415 96.4224 10.9393 95.6942 11.6852C94.9659 12.431 94.5775 13.4255 94.5775 14.6686Z" fill="white"/>
<path d="M120.796 17.1051L122.495 19.8399C121.913 20.6852 121.087 21.2818 120.116 21.7294C119.097 22.1769 118.028 22.3758 116.815 22.3758C114.484 22.3758 112.591 21.6796 111.183 20.2376C109.775 18.8454 109.046 16.9559 109.046 14.6686C109.046 12.4808 109.726 10.6907 111.134 9.19899C112.542 7.70728 114.29 6.96143 116.475 6.96143C118.999 6.96143 120.941 7.60783 122.252 8.95037L120.553 11.9338C119.582 10.989 118.417 10.4918 117.009 10.4918C115.941 10.4918 115.018 10.8896 114.241 11.6355C113.465 12.431 113.028 13.4255 113.028 14.6686C113.028 15.9117 113.416 16.9559 114.241 17.7017C115.067 18.4973 116.038 18.8454 117.154 18.8454C118.514 18.8951 119.728 18.2984 120.796 17.1051Z" fill="white"/>
<path d="M125.942 22.0276V7.35913H129.584V22.0276H125.942ZM139.488 7.35913L134.002 14.3204L140.168 22.0276H135.41L129.729 14.6188L134.876 7.35913H139.488Z" fill="white"/>
<path d="M143.178 20.1879C141.722 18.7459 141.042 16.9062 141.042 14.6686C141.042 12.431 141.77 10.5913 143.178 9.14927C144.635 7.70728 146.48 6.96143 148.81 6.96143C151.141 6.96143 153.034 7.70728 154.442 9.14927C155.899 10.5913 156.578 12.431 156.578 14.6686C156.578 16.9062 155.85 18.7459 154.442 20.1879C152.986 21.6299 151.141 22.3758 148.81 22.3758C146.528 22.3758 144.635 21.6299 143.178 20.1879ZM144.975 14.6686C144.975 15.9117 145.363 16.9062 146.091 17.7017C146.82 18.4973 147.742 18.8951 148.859 18.8951C150.024 18.8951 150.946 18.4973 151.675 17.7515C152.403 16.9559 152.791 15.9614 152.791 14.7183C152.791 13.525 152.403 12.4808 151.675 11.7349C150.946 10.9393 149.975 10.5415 148.859 10.5415C147.742 10.5415 146.82 10.9393 146.091 11.6852C145.363 12.431 144.975 13.4255 144.975 14.6686Z" fill="white"/>
<path d="M160.317 22.0275V7.35905C160.56 7.35905 161.045 7.35905 161.725 7.30933C162.405 7.2596 163.133 7.2596 163.861 7.20988C164.589 7.20988 165.269 7.16016 165.949 7.16016C170.27 7.16016 172.455 8.45297 172.455 10.9889C172.455 11.8342 172.212 12.58 171.678 13.1767C171.144 13.7734 170.513 14.1215 169.784 14.2706V14.3204C171.824 14.8176 172.843 15.9612 172.843 17.7016C172.843 20.6353 170.561 22.127 166.046 22.127C165.415 22.127 164.395 22.0773 163.036 22.0275C161.628 22.0275 160.705 22.0275 160.317 22.0275ZM166.289 10.1933C165.269 10.1933 164.492 10.1933 164.007 10.243V13.4751H166.386C167.017 13.4751 167.551 13.3259 167.939 13.0276C168.376 12.7292 168.571 12.3314 168.571 11.7845C168.571 10.7403 167.794 10.1933 166.289 10.1933ZM166.289 15.7624H164.007V19.0441C165.463 19.1436 166.24 19.1933 166.434 19.1933C167.26 19.1933 167.891 19.0441 168.328 18.7458C168.765 18.4474 169.008 18.0496 169.008 17.5027C168.959 16.359 168.085 15.7624 166.289 15.7624Z" fill="white"/>
<path d="M187.651 17.1051L189.35 19.8399C188.768 20.6852 187.942 21.2818 186.971 21.7294C185.952 22.1769 184.883 22.3758 183.67 22.3758C181.339 22.3758 179.446 21.6796 178.038 20.2376C176.63 18.8454 175.901 16.9559 175.901 14.6686C175.901 12.4808 176.581 10.6907 177.989 9.19899C179.397 7.70728 181.145 6.96143 183.33 6.96143C185.854 6.96143 187.796 7.60783 189.107 8.95037L187.408 11.9338C186.437 10.989 185.272 10.4918 183.864 10.4918C182.796 10.4918 181.873 10.8896 181.096 11.6355C180.32 12.431 179.883 13.4255 179.883 14.6686C179.883 15.9117 180.271 16.9559 181.096 17.7017C181.922 18.4973 182.893 18.8454 184.009 18.8454C185.32 18.8951 186.583 18.2984 187.651 17.1051Z" fill="white"/>
<path d="M192.75 22.0276V7.35913H196.391V22.0276H192.75ZM206.344 7.35913L200.858 14.3204L207.024 22.0276H202.266L196.585 14.6188L201.732 7.35913H206.344Z" fill="white"/>
<path d="M213.286 22.0276H209.645V7.35913H213.286V16.6575L219.986 7.35913H223.627V22.0276H219.986V12.7293L213.286 22.0276Z" fill="white"/>
<path d="M231.833 22.0276H228.192V7.3591H231.833V16.6574L238.533 7.3591H242.175V22.0276H238.533V12.7293L231.833 22.0276ZM230.328 0H233.678C233.678 0.696131 233.824 1.24309 234.067 1.69061C234.309 2.13812 234.746 2.38674 235.329 2.38674C235.814 2.38674 236.203 2.13812 236.494 1.69061C236.737 1.24309 236.883 0.696131 236.883 0H240.233C240.233 1.49171 239.796 2.68508 238.97 3.62983C238.145 4.57458 236.931 5.07182 235.378 5.07182C233.678 5.07182 232.416 4.6243 231.59 3.67955C230.717 2.7348 230.328 1.54143 230.328 0Z" fill="white"/>
<path d="M73.4578 36.0497V35.1049H78.5072C78.4101 34.011 78.0217 33.116 77.2934 32.5193C76.5651 31.9226 75.6912 31.6243 74.6231 31.6243C73.3607 31.6243 72.2926 32.0221 71.5158 32.8674L71.0303 32.0221C71.4672 31.5746 72.0013 31.2265 72.6325 30.9779C73.3122 30.7292 73.9434 30.5801 74.6231 30.5801C76.1282 30.5801 77.342 31.0276 78.313 31.9723C79.284 32.9171 79.721 34.1602 79.721 35.7016C79.721 37.1436 79.284 38.3867 78.3615 39.3314C77.4391 40.3259 76.3224 40.8232 74.9629 40.8232C73.2636 40.8232 72.0013 40.4254 71.1759 39.6298L71.71 38.7845C72.4383 39.4309 73.5064 39.779 74.8658 39.779C75.8854 39.779 76.7593 39.4309 77.4876 38.7845C78.1673 38.0884 78.5557 37.2431 78.6528 36.0994H73.4578V36.0497Z" fill="white"/>
<path d="M82.3921 40.6241V30.7788H83.5088V40.6241H82.3921ZM90.2574 30.7788L85.4994 35.5026L90.6458 40.6241H89.1407L84.1399 35.5523L88.8009 30.7788H90.2574Z" fill="white"/>
<path d="M99.7733 38.3867L100.307 39.232C99.919 39.7292 99.3849 40.127 98.7538 40.4254C98.1226 40.7237 97.3943 40.8232 96.7146 40.8232C95.2095 40.8232 93.9957 40.3756 93.0247 39.4309C92.0537 38.4861 91.6167 37.2431 91.6167 35.7016C91.6167 34.2596 92.0537 33.0165 92.9761 32.0718C93.8986 31.0773 95.0153 30.5801 96.3747 30.5801C98.0255 30.5801 99.2878 30.9779 100.113 31.8232L99.5791 32.7182C98.8023 32.0221 97.7827 31.6243 96.5204 31.6243C95.5008 31.6243 94.5783 32.0221 93.8501 32.7679C93.1218 33.5635 92.7334 34.5082 92.7334 35.6519C92.7334 36.895 93.1218 37.8397 93.8501 38.5856C94.6269 39.3314 95.5494 39.6795 96.7146 39.6795C98.0255 39.7292 98.9965 39.2817 99.7733 38.3867Z" fill="white"/>
<path d="M110.018 40.6241V31.823H103.9V40.6241H102.784V30.7788H111.135V40.6241H110.018Z" fill="white"/>
<path d="M115.212 39.3812C114.29 38.4364 113.804 37.1933 113.804 35.7016C113.804 34.2099 114.29 32.9668 115.212 32.0221C116.135 31.0773 117.348 30.5801 118.854 30.5801C120.359 30.5801 121.524 31.0773 122.495 32.0221C123.417 32.9668 123.903 34.2099 123.903 35.7016C123.903 37.1933 123.417 38.4364 122.495 39.3812C121.572 40.3259 120.359 40.8232 118.854 40.8232C117.397 40.8232 116.183 40.3259 115.212 39.3812ZM116.086 32.7679C115.358 33.5138 114.969 34.5083 114.969 35.7016C114.969 36.895 115.309 37.8397 116.038 38.6353C116.766 39.3812 117.688 39.779 118.805 39.779C119.922 39.779 120.893 39.3812 121.572 38.6353C122.301 37.8895 122.641 36.895 122.641 35.7016C122.641 34.5083 122.301 33.5635 121.572 32.7679C120.844 32.0221 119.922 31.6243 118.805 31.6243C117.737 31.674 116.814 32.0221 116.086 32.7679Z" fill="white"/>
<path d="M126.622 44.9999V30.7789H127.738V32.0717C128.127 31.6242 128.612 31.2761 129.243 30.9778C129.875 30.6794 130.554 30.5303 131.234 30.5303C132.593 30.5303 133.71 30.9778 134.487 31.9225C135.312 32.8176 135.701 34.0607 135.701 35.5026C135.701 37.0441 135.264 38.2872 134.341 39.2816C133.419 40.2761 132.254 40.7733 130.748 40.7733C129.438 40.7733 128.418 40.475 127.69 39.928V44.9501H126.622V44.9999ZM130.991 31.6739C130.36 31.6739 129.729 31.8231 129.146 32.1214C128.564 32.4198 128.078 32.7678 127.787 33.2154V38.8838C128.661 39.4805 129.68 39.7789 130.797 39.7789C131.962 39.7789 132.885 39.3811 133.564 38.6352C134.293 37.8396 134.633 36.8452 134.633 35.6518C134.633 34.4584 134.293 33.5137 133.662 32.7678C132.982 32.022 132.108 31.6739 130.991 31.6739Z" fill="white"/>
<path d="M136.672 31.9225V30.7788H145.46V31.9225H141.625V40.6241H140.508V31.9225H136.672Z" fill="white"/>
<path d="M154.782 40.6241V36.149H148.519V40.6241H147.402V30.7788H148.519V35.1048H154.782V30.7788H155.898V40.6241H154.782Z" fill="white"/>
<path d="M159.249 40.6241V30.7788H160.366V34.1103H162.016C164.541 34.1103 165.803 35.2042 165.803 37.3423C165.803 38.2871 165.512 39.0827 164.881 39.7291C164.25 40.3258 163.279 40.6738 161.871 40.6738H159.249V40.6241ZM161.871 35.1545H160.414V39.5799H161.871C162.89 39.5799 163.619 39.381 164.056 39.0329C164.493 38.6849 164.687 38.0882 164.687 37.3921C164.687 35.9003 163.716 35.1545 161.871 35.1545ZM168.037 40.6241V30.7788H169.154V40.6241H168.037Z" fill="white"/>
<path d="M173.668 40.6243H172.552V30.779H173.668V38.9834L180.077 30.779H181.194V40.6243H180.077V32.4199L173.668 40.6243ZM174.008 25.6575H175.028C175.028 26.2044 175.222 26.6519 175.562 27.0497C175.95 27.3978 176.387 27.5967 177.018 27.5967C177.553 27.5967 178.038 27.3978 178.378 27.0497C178.718 26.7017 178.912 26.2044 178.912 25.6575H179.932C179.932 26.453 179.64 27.1492 179.106 27.6464C178.572 28.1934 177.844 28.442 177.018 28.442C176.096 28.442 175.368 28.1934 174.834 27.6464C174.3 27.1492 174.008 26.453 174.008 25.6575Z" fill="white"/>
<path d="M189.593 40.6241V30.7788H190.71V39.5799H196.779V30.7788H197.896V39.5799H199.498V43.16H198.43V40.6738H189.593V40.6241Z" fill="white"/>
<path d="M209.16 38.5359L209.5 39.4309C208.626 40.3756 207.46 40.8232 205.955 40.8232C204.45 40.8232 203.188 40.3756 202.265 39.4309C201.343 38.4861 200.857 37.2431 200.857 35.7016C200.857 34.2099 201.294 32.9668 202.168 32.0221C203.042 31.0773 204.207 30.5801 205.761 30.5801C207.023 30.5801 208.043 30.9779 208.868 31.8232C209.694 32.6187 210.131 33.7127 210.131 35.0552C210.131 35.4033 210.131 35.7016 210.082 35.9502H202.168C202.217 37.1436 202.605 38.0884 203.285 38.7348C204.013 39.4309 204.936 39.7292 206.101 39.7292C207.363 39.7292 208.383 39.3314 209.16 38.5359ZM205.615 31.674C204.596 31.674 203.722 31.9723 203.091 32.6187C202.46 33.2154 202.12 34.0607 202.023 35.0552H208.966C208.966 34.011 208.626 33.2154 208.043 32.6187C207.46 31.9723 206.635 31.674 205.615 31.674Z" fill="white"/>
<path d="M220.132 40.6241V36.149H213.869V40.6241H212.752V30.7788H213.869V35.1048H220.132V30.7788H221.249V40.6241H220.132Z" fill="white"/>
<path d="M223.191 31.9225V30.7788H231.979V31.9225H228.144V40.6241H227.027V31.9225H223.191Z" fill="white"/>
<path d="M233.92 44.9999V30.7789H235.037V32.0717C235.426 31.6242 235.911 31.2761 236.542 30.9778C237.173 30.6794 237.853 30.5303 238.533 30.5303C239.892 30.5303 241.009 30.9778 241.786 31.9225C242.611 32.8176 243 34.0607 243 35.5026C243 37.0441 242.563 38.2872 241.64 39.2816C240.718 40.2761 239.552 40.7733 238.047 40.7733C236.736 40.7733 235.717 40.475 234.989 39.928V44.9501H233.92V44.9999ZM238.242 31.6739C237.61 31.6739 236.979 31.8231 236.397 32.1214C235.814 32.4198 235.328 32.7678 235.037 33.2154V38.8838C235.911 39.4805 236.931 39.7789 238.047 39.7789C239.213 39.7789 240.135 39.3811 240.815 38.6352C241.543 37.8396 241.883 36.8452 241.883 35.6518C241.883 34.4584 241.543 33.5137 240.912 32.7678C240.281 32.022 239.407 31.6739 238.242 31.6739Z" fill="white"/>
</svg>
