<svg width="215" height="48" viewBox="0 0 215 48" fill="none" xmlns="http://www.w3.org/2000/svg">
<g clip-path="url(#clip0_5980_8794)">
<path d="M0.840601 0.83965H39.0125V37.8704C39.0125 41.7995 36.4368 44.1462 32.1261 44.1462H27.4812C24.4205 44.1462 21.9419 45.0289 19.9373 46.8482C17.9113 45.0397 15.4434 44.1462 12.3935 44.1462H7.7594C3.42707 44.1462 0.840601 41.7995 0.840601 37.8704V0.83965ZM0 37.8704C0 42.2624 2.97444 44.9859 7.7594 44.9859H12.4043C15.3248 44.9859 17.6634 45.8471 19.5601 47.6232L19.9481 47.9892L20.3361 47.6232C22.2221 45.8471 24.5606 44.9859 27.492 44.9859H32.1368C36.9002 44.9859 39.8639 42.2624 39.8639 37.8704V0H0V37.8704Z" fill="white"/>
<path d="M7.86734 26.1153C8.13677 25.7493 8.23376 25.3187 8.24453 24.8881C8.26609 24.113 8.48163 23.3918 8.82649 22.7029C8.98814 22.3691 9.18213 22.0462 9.37611 21.691C9.30067 21.734 9.24679 21.7556 9.19291 21.7879C8.96659 21.9816 8.74027 22.1969 8.50318 22.3907C8.4493 22.4337 8.37386 22.466 8.28764 22.5199C8.28764 22.4445 8.26609 22.4014 8.27687 22.3691C8.70794 21.551 9.26834 20.8513 10.1089 20.41C10.3353 20.2916 10.5724 20.2377 10.8202 20.2485C11.6069 20.3023 12.2428 20.6791 12.7924 21.2281C12.8678 21.3034 12.9217 21.3788 12.8571 21.4864C12.7924 21.6048 12.717 21.6694 12.5769 21.6479C12.2536 21.6156 11.9302 21.5833 11.6069 21.5618C10.7448 21.4972 10.1628 21.9386 9.73175 22.6275C9.39767 23.155 9.20368 23.7255 9.10669 24.3391C8.98814 25.0819 8.6325 25.6847 8.06133 26.1799C7.99667 26.2337 7.92123 26.266 7.85656 26.309C7.83501 26.2875 7.82423 26.266 7.80268 26.2445C7.82423 26.2014 7.83501 26.1476 7.86734 26.1153ZM14.118 22.057C14.5814 21.8417 15.0879 21.7771 15.5836 21.691C15.7992 21.6587 15.8423 21.7125 15.8531 21.9278C15.8746 22.3046 15.9069 22.6706 15.9393 23.0473C16.0255 24.0162 15.6698 24.845 15.1526 25.6309C14.8292 26.126 14.4628 26.5674 13.9455 26.8688C13.7408 26.9872 13.5683 27.1595 13.3851 27.3102C13.3097 27.3748 13.2558 27.4501 13.148 27.5685C13.5576 27.7838 13.9455 27.7408 14.312 27.8053C14.3766 27.9345 14.3227 28.0099 14.215 28.0529C13.9994 28.1391 13.7947 28.2144 13.5791 28.3005C13.2019 28.4297 12.8247 28.5373 12.4583 28.6881C11.7363 28.9895 11.2082 29.4954 10.8202 30.1736C10.7232 30.3351 10.637 30.4965 10.54 30.658C10.4861 30.7441 10.4215 30.841 10.3137 30.7764C10.2598 30.7441 10.2167 30.6257 10.2167 30.5504C10.2598 29.8937 10.5616 29.3985 11.1004 29.0218C11.6932 28.6127 12.0703 28.0745 12.135 27.3425C12.2428 26.1153 12.4044 24.9096 12.7062 23.7147C12.9002 22.9397 13.3959 22.4014 14.118 22.057ZM14.3982 18.0633C13.73 18.0094 13.1049 17.8049 12.4907 17.5681C11.8117 17.299 11.1328 17.3312 10.4969 17.708C10.4754 17.7188 10.443 17.7295 10.4107 17.7403C10.2814 17.6111 10.3353 17.4927 10.4323 17.3743C10.6478 17.116 10.928 16.9545 11.2513 16.8684C12.0488 16.6315 12.8355 16.3839 13.633 16.1471C13.7947 16.0933 13.9455 16.0395 14.1072 15.9749C14.1611 15.9534 14.215 15.8995 14.312 15.8349C13.2343 15.6519 12.2643 15.7811 11.2944 16.1579C11.025 15.7058 11.0681 15.4905 11.4668 15.1891C11.8225 14.9307 12.2212 14.8446 12.6415 14.8446C13.2235 14.8446 13.8054 14.9092 14.3658 15.0707C14.8724 15.2214 15.3896 15.3828 15.8962 15.5335C15.9177 15.5335 15.9177 15.5658 15.95 15.5874C15.8099 15.7488 15.5944 15.7596 15.422 15.8672C15.2495 15.9641 15.0663 16.0502 14.8939 16.1364C14.7107 16.2332 14.5167 16.3194 14.3335 16.4162C14.1611 16.5024 13.9779 16.5885 13.7947 16.6638C13.6007 16.7392 13.4067 16.793 13.2235 16.9007C13.3851 16.976 13.5252 16.9007 13.6869 16.8899C13.8485 16.8684 14.021 16.8468 14.1826 16.8253C14.3443 16.8038 14.5167 16.7822 14.6784 16.75C14.84 16.7177 15.0017 16.6854 15.1741 16.6423C15.0771 16.9222 14.9155 17.0406 14.1934 17.342C14.2365 17.3635 14.2688 17.3958 14.3012 17.3958C14.84 17.3743 15.3681 17.342 15.8423 17.0514C15.9608 16.976 16.1009 16.9007 16.2302 16.8468C16.2734 16.8253 16.3596 16.8253 16.3919 16.8576C16.4242 16.8899 16.4242 16.976 16.4135 17.0191C16.2949 17.3205 16.1009 17.5681 15.8315 17.7511C15.3789 18.0094 14.9047 18.1063 14.3982 18.0633ZM13.148 10.1512C13.3636 10.4418 13.5576 10.7217 13.7623 10.9908C15.1094 12.8531 16.4458 14.7046 17.7929 16.567C18.7521 17.891 19.7004 19.2151 20.6596 20.5284C21.6726 21.917 22.6856 23.3057 23.6987 24.6943C24.3345 25.577 24.9703 26.449 25.6062 27.3317C25.7032 27.4716 25.8002 27.6008 25.9942 27.6116C26.1235 27.6116 26.1666 27.73 26.1774 27.8376C26.2097 28.096 26.242 28.3651 26.2851 28.6881C25.9295 28.5158 25.617 28.3651 25.2937 28.2036C25.326 28.1175 25.3475 28.0529 25.3799 27.9991C25.4876 27.8484 25.4661 27.7192 25.3583 27.5685C24.6686 26.6105 23.9896 25.6524 23.2999 24.7051C22.3839 23.4241 21.4571 22.1323 20.5302 20.8513C19.7759 19.8071 19.0323 18.763 18.2779 17.7188C16.6505 15.4582 15.0232 13.1868 13.3959 10.9262C13.2881 10.7863 13.1804 10.6463 13.0726 10.4956C12.9972 10.388 12.9972 10.2803 13.148 10.1512ZM16.3919 11.1415C16.7368 11.3891 17.0493 11.669 17.3726 11.9489C17.6744 12.2072 17.9438 12.4979 18.3318 12.6271C18.5257 12.6916 18.7305 12.7024 18.9891 12.7455C18.7521 12.8854 18.5257 12.95 18.3102 12.9285C18.0839 12.9177 17.8576 12.8316 17.6205 12.767C17.8145 13.1115 18.5473 13.3483 19.3987 13.316C19.3987 13.4021 19.4202 13.5098 19.3879 13.5851C19.3017 13.7896 19.2047 14.0049 19.0754 14.1879C18.8598 14.5001 18.5581 14.5862 18.1917 14.5001C16.8014 14.1772 15.8638 13.2945 15.2495 12.0458C15.1849 11.9273 15.1526 11.7874 15.131 11.6475C15.1094 11.4537 15.0556 11.2815 14.8724 11.1738C14.8292 11.1523 14.8077 11.0877 14.7538 11.0123C15.3573 10.797 15.8962 10.7863 16.3919 11.1415ZM18.5581 6.62033C18.2348 6.79256 17.933 7.00786 17.5666 7.07244C17.2972 7.1155 17.0601 7.04015 16.8338 6.90021C16.7799 6.86791 16.7583 6.80333 16.7044 6.70644C16.9092 6.72797 17.0601 6.72797 17.2217 6.7495C17.5235 6.79256 17.7929 6.73874 18.0516 6.58803C18.3425 6.4158 18.6443 6.24356 18.946 6.06056C19.1616 5.93138 19.3987 5.92062 19.6358 5.99597C19.6789 6.00673 19.722 6.06056 19.7651 6.10362C19.722 6.13591 19.7112 6.16821 19.6789 6.16821C19.2478 6.18974 18.9029 6.42656 18.5581 6.62033ZM17.2756 7.53533C17.2648 7.5138 17.2648 7.49227 17.2541 7.47074C17.5774 7.3308 17.9115 7.18009 18.2671 7.02939C18.0516 7.39539 17.6528 7.58915 17.2756 7.53533ZM20.0345 7.45998C20.1315 7.65374 20.1962 7.85827 20.2716 8.0628C20.3255 8.20274 20.347 8.35345 20.3901 8.53645C20.1315 8.51492 19.9267 8.51492 19.7328 8.49339C19.5172 8.47186 19.4202 8.34268 19.4526 8.12739C19.4849 7.8798 19.5711 7.65374 19.722 7.44921C19.8513 7.27697 19.9375 7.26621 20.0345 7.45998ZM19.4633 9.46222C19.7112 9.46222 19.7435 9.50528 19.6896 9.7421C19.6573 9.88204 19.625 10.0005 19.8405 10.0435C19.8621 9.87128 19.8836 9.70981 19.9052 9.53757C20.4764 9.44069 20.5841 9.53757 20.4333 10.0435C20.347 10.3234 20.2177 10.5925 20.0776 10.8509C19.9698 11.0446 19.8729 11.0339 19.6896 10.9047C19.3879 10.6894 19.2693 10.3665 19.1508 10.0435C19.0754 9.82822 19.0323 9.60216 18.9568 9.39763C18.9029 9.23616 18.946 9.12851 19.0538 9.02086C19.3987 8.65486 20.0992 8.68716 20.4225 9.07469C20.2608 9.27922 19.9914 9.32228 19.7435 9.21463C19.625 9.16081 19.4849 9.12851 19.3556 9.12851C19.2801 9.12851 19.1939 9.20386 19.1185 9.24692C19.1939 9.40839 19.3125 9.46222 19.4633 9.46222ZM22.1037 10.7217C22.1145 10.7109 22.136 10.7325 22.1899 10.7325C22.1683 10.7863 22.1468 10.8401 22.1145 10.8724C21.8881 11.0877 21.7265 11.3353 21.5972 11.6259C21.5433 11.7336 21.4786 11.8412 21.3924 11.9058C20.7997 12.3041 20.4656 12.8854 20.2824 13.5421C20.1207 14.0911 20.0561 14.6616 19.916 15.2106C19.8621 15.4474 19.7435 15.6735 19.6142 15.878C19.5064 16.0502 19.3125 16.1148 19.043 16.0933C19.1616 16.3732 19.3448 16.5562 19.5388 16.7069C19.722 16.8576 19.9483 16.9545 20.1638 17.0837C20.0345 17.3635 19.8944 17.6434 19.7435 17.9664C19.3017 17.3743 18.8922 16.8361 18.4934 16.3086C18.7521 15.9211 18.9999 15.5766 19.2262 15.2214C19.528 14.7477 19.6789 14.2095 19.7112 13.6497C19.722 13.3698 19.7974 13.1222 19.916 12.8854C20.3794 11.8951 21.1338 11.1953 22.1037 10.7217ZM22.7287 12.8316C22.8042 12.9285 22.7395 13.0146 22.6856 13.1007C22.1145 14.0049 21.9097 14.9845 21.9851 16.0395C22.0175 16.4701 22.039 16.9114 22.0498 17.342C22.0498 17.9771 21.7049 18.397 21.1445 18.6445C20.9829 18.7199 20.8104 18.7522 20.638 18.7845C20.5195 18.806 20.444 18.7307 20.4764 18.6015C20.5734 18.1494 20.6811 17.708 21.0691 17.4066C21.22 17.2882 21.2631 17.1482 21.2415 16.9652C21.2092 16.7392 21.1876 16.5131 21.1553 16.2871C21.1122 15.9534 21.1876 15.6304 21.2846 15.329C21.3816 15.0276 21.5217 14.7477 21.6403 14.4571C21.6511 14.4248 21.6618 14.3925 21.6834 14.3602C21.3924 14.4571 21.1984 14.7046 20.8643 14.7585C20.8751 14.6831 20.8751 14.6401 20.8967 14.597C21.1445 14.1018 21.4463 13.6389 21.845 13.2406C22.0175 13.0684 22.233 12.9392 22.4378 12.7993C22.5348 12.7455 22.6533 12.7239 22.7287 12.8316ZM22.8581 13.5744C23.0628 12.4656 23.537 11.5183 24.5824 10.9478C24.6901 10.8832 24.8195 10.8509 24.938 10.797C25.132 10.7217 25.3152 10.7109 25.5092 10.797C25.617 10.8401 25.7463 10.8509 25.8541 10.8939C25.951 10.937 26.048 10.9478 26.1343 10.8832C26.2851 10.7863 26.4037 10.8293 26.5438 10.9262C26.7485 11.0769 26.9749 11.2061 27.1796 11.3568C27.2982 11.4429 27.4167 11.5398 27.5137 11.6582C27.6538 11.8197 27.5999 11.9489 27.4059 12.0135C27.3089 12.0458 27.212 12.0458 27.115 12.0781C27.0719 12.0888 27.0395 12.1211 26.9641 12.1749C27.0611 12.1965 27.1042 12.2072 27.1473 12.2072C27.2012 12.218 27.2443 12.218 27.2766 12.218C27.3521 12.3256 27.3952 12.4548 27.4814 12.5086C27.5676 12.5625 27.7077 12.5302 27.8155 12.5517C27.8801 12.5625 27.9448 12.584 27.9987 12.6271C28.0418 12.6593 28.0849 12.7132 28.1064 12.767C28.3543 13.3375 28.7962 13.7466 29.2488 14.1449C29.2811 14.1664 29.3027 14.1987 29.335 14.231C29.3458 14.2418 29.3458 14.2633 29.3458 14.2956C29.3135 14.414 29.2272 14.4032 29.141 14.4032C28.8932 14.3817 28.6561 14.4032 28.419 14.5001C28.3328 14.5324 28.225 14.5109 28.1388 14.4894C27.6969 14.3494 27.2551 14.2095 26.8132 14.0695C26.63 14.0157 26.4468 13.9726 26.2744 13.9081C25.6816 13.682 25.4984 13.1976 25.7894 12.6271C25.8325 12.5302 25.8864 12.4333 25.9295 12.3364C25.9295 12.3364 25.9187 12.3256 25.8972 12.2826C25.617 12.4871 25.423 12.7347 25.3906 13.0899C25.3475 13.5421 25.4876 13.9511 25.6924 14.3386C25.8864 14.7046 26.1343 15.0491 26.2851 15.4259C26.5222 15.9964 26.6947 16.5992 26.8886 17.1805C26.9425 17.3312 26.9749 17.482 27.018 17.6327C27.212 18.3647 27.1257 19.0859 26.9533 19.7964C26.8671 20.1624 26.7485 20.5176 26.6084 20.8621C26.5007 21.1527 26.4468 21.1635 26.1343 21.0774C25.8325 20.9913 25.5307 20.9159 25.2182 20.8406C24.9703 20.7867 24.7225 20.7544 24.4638 20.8728C24.6363 21.0128 24.841 21.0666 25.0566 21.1097C25.4661 21.1958 25.8864 21.2819 26.2744 21.4757C26.4252 21.551 26.5222 21.6587 26.5653 21.8201C26.6192 22.0354 26.6731 22.2615 26.7485 22.4768C26.8024 22.6275 26.7485 22.7136 26.6084 22.7351C26.3498 22.789 26.0912 22.8428 25.8217 22.8643C25.5307 22.8859 25.229 22.8643 24.938 22.8643C24.9272 22.8859 24.9165 22.9074 24.9165 22.9289C24.9704 22.972 25.0242 23.0258 25.0781 23.0473C25.5846 23.2303 26.1019 23.4026 26.6084 23.5856C26.6731 23.6071 26.727 23.6502 26.7701 23.704C26.8994 23.8547 27.0611 23.93 27.2658 23.9408C27.8586 23.9516 28.4513 23.9623 29.044 23.8439C29.4536 23.7686 29.8846 23.7363 30.3157 23.7901C30.5528 23.8224 30.7252 23.93 30.8438 24.1238C30.9192 24.2422 30.9947 24.3606 31.0485 24.479C31.0593 24.5113 31.0485 24.5867 31.027 24.6082C31.0054 24.6297 30.93 24.6405 30.8977 24.619C30.7899 24.5652 30.6929 24.5113 30.5851 24.4467C30.3696 24.3176 30.1648 24.3176 29.9385 24.436C29.4428 24.662 28.947 24.8773 28.4513 25.0926C27.9556 25.2972 27.449 25.3617 26.9102 25.3187C26.242 25.2649 25.5739 25.1895 24.9272 24.9742C24.4099 24.802 23.9465 24.5436 23.6125 24.1023C23.1383 23.4887 22.6856 22.8751 22.2222 22.2615C21.942 21.8955 21.8666 21.4864 21.9851 21.0343C22.1576 20.3454 22.1899 19.6241 22.2869 18.9244C22.3839 18.2032 22.5024 17.482 22.5994 16.7607C22.6425 16.427 22.6533 16.0933 22.6856 15.7596C22.7072 15.0168 22.7287 14.2848 22.8581 13.5744ZM28.9794 22.4122C29.0764 22.1323 29.2488 21.9278 29.5398 21.8094C29.8523 21.691 30.1433 21.5295 30.445 21.3896C30.6498 21.3034 30.6498 21.3034 30.9084 21.3896C30.736 21.6156 30.5851 21.8201 30.4127 22.0031C30.1864 22.24 29.9601 22.466 29.7014 22.6706C29.5829 22.7674 29.3889 22.7997 29.238 22.8105C29.0009 22.8213 28.9039 22.6383 28.9794 22.4122ZM26.4468 29.0971C26.6408 29.194 26.7054 29.3447 26.727 29.5815C26.63 29.5277 26.5761 29.5169 26.5222 29.4739C26.3714 29.3662 26.2205 29.3555 26.0588 29.4524C25.9618 29.5169 25.9295 29.5923 25.9942 29.6999C26.1019 29.8614 26.1881 30.0444 26.3175 30.1951C26.6084 30.5719 26.8994 30.9487 26.9964 31.4223C27.0287 31.6053 27.0503 31.7991 27.0611 31.9821C27.0719 32.2512 27.1796 32.4342 27.4275 32.5418C27.4598 32.5526 27.4922 32.5849 27.5568 32.6387C27.449 32.7787 27.3521 32.9294 27.2443 33.0585C27.1042 33.22 26.9641 33.3922 26.8024 33.543C26.5007 33.8336 26.145 33.8444 25.7786 33.6937C25.4445 33.5537 25.1428 33.2308 25.1859 32.8217C25.2074 32.5634 25.229 32.3158 25.2613 32.0574C25.3152 31.4546 25.3799 30.841 25.4338 30.2382C25.4445 30.1413 25.4338 30.0444 25.423 29.9475C25.3691 29.5062 25.1428 29.2801 24.7009 29.3016C24.3668 29.3124 24.0435 29.3985 23.7094 29.4739C23.4939 29.5169 23.2891 29.6031 23.0844 29.6354C22.9874 29.6569 22.8581 29.6354 22.7719 29.5815C22.4378 29.3878 22.1252 29.1725 21.7912 28.9787C21.414 28.7526 21.0152 28.5373 20.6272 28.3221C20.6057 28.3113 20.5734 28.3221 20.5518 28.3221C20.6165 28.5804 20.7242 28.828 20.735 29.0756C20.735 29.3232 20.638 29.5708 20.5841 29.8399C20.6057 29.8614 20.6488 29.9045 20.6811 29.9475C20.7242 30.0121 20.7997 30.1198 20.7781 30.1413C20.7135 30.2059 20.6272 30.2705 20.541 30.2812C20.3255 30.292 20.0992 30.3028 19.8944 30.2705C19.3556 30.1844 18.8275 30.0659 18.2994 29.9583C18.0516 29.9152 17.8037 29.8722 17.5343 29.8506C17.9653 30.3243 18.4395 30.7441 18.7197 31.3362C18.6874 31.3685 18.6658 31.4008 18.6443 31.4008C18.2024 31.4008 17.7929 31.573 17.3834 31.6914C17.2217 31.7345 17.114 31.7129 17.0277 31.573C16.9092 31.3792 16.7906 31.1855 16.6613 31.0025C16.4458 30.6688 16.5751 30.3781 16.8014 30.1198C16.9092 30.0014 17.017 29.8829 17.1463 29.7861C17.5774 29.4954 17.8576 29.0756 18.1701 28.6881C18.2455 28.5912 18.2994 28.4835 18.3856 28.4082C18.4395 28.3543 18.5257 28.3005 18.6012 28.2898C19.3663 28.1713 20.1207 28.0529 20.8859 27.9453C22.0067 27.7838 23.0628 27.3855 24.0974 26.9657C24.2375 26.9119 24.313 26.9334 24.3992 27.0518C24.5608 27.2563 24.7333 27.4716 24.9165 27.6654C25.0458 27.7946 25.035 27.913 24.9596 28.0637C24.8195 28.3221 24.8195 28.3221 25.0781 28.4512C25.5308 28.645 25.9834 28.8711 26.4468 29.0971ZM27.1365 28.5481C27.4275 28.9679 27.4922 29.4739 27.7831 29.8937C27.8909 29.8184 27.9879 29.7753 28.0741 29.7107C28.1819 29.6246 28.2789 29.6354 28.3651 29.7215C28.4513 29.7968 28.4297 29.8722 28.3651 29.9583C28.1819 30.2274 28.3004 30.4535 28.6453 30.475C28.7962 30.4858 28.8824 30.5504 28.9363 30.6903C29.044 30.9809 29.1626 31.2716 29.2703 31.5838C29.2057 31.6161 29.141 31.6484 29.0548 31.6807C29.0656 31.8206 29.0871 31.9498 29.0979 32.0897C28.9901 32.1866 28.9147 32.1112 28.8393 32.0467C28.5806 31.7991 28.322 31.5622 28.0741 31.3039C27.9232 31.1424 27.8047 30.9594 27.6538 30.7764C27.7077 30.7118 27.7292 30.6795 27.7616 30.6365C27.934 30.3996 27.8801 30.2382 27.6107 30.109C27.449 30.0336 27.3305 29.9475 27.2874 29.7538C27.2335 29.5277 27.1257 29.3124 27.0611 29.0863C27.0287 28.9033 26.9641 28.7311 27.1365 28.5481ZM27.8693 33.6183C27.5784 34.2211 27.0826 34.5979 26.4791 34.8455C26.3282 34.9101 26.1881 34.9531 26.0265 35.007C25.9079 35.3622 25.7894 35.7282 25.6708 36.105C25.3583 36.0188 25.0997 35.8789 24.8949 35.6636C24.7225 35.4914 24.7225 35.2438 24.9165 35.05C25.132 34.824 25.3691 34.6087 25.6385 34.4472C26.2097 34.135 26.8024 33.8659 27.3844 33.5752C27.546 33.4999 27.7185 33.4138 27.8801 33.3277C27.9771 33.4568 27.9125 33.5322 27.8693 33.6183ZM24.2806 30.7118C24.3561 30.4427 24.4099 30.1628 24.4746 29.8829C24.7117 29.8722 24.8841 30.0121 24.8949 30.2597C24.8949 30.3889 24.8734 30.5396 24.8302 30.6688C24.7117 30.9809 24.5824 31.2824 24.4423 31.5945C24.4099 31.6591 24.3561 31.7022 24.2698 31.7883C24.1944 31.39 24.1836 31.0563 24.2806 30.7118ZM24.4423 34.1781C24.2052 34.6733 23.828 35.0393 23.3969 35.3622C23.3754 35.3837 23.343 35.373 23.2568 35.3945C23.4508 34.9747 23.6125 34.5979 23.7849 34.2319C23.7741 34.2211 23.7633 34.2104 23.7526 34.1996C23.5909 34.2965 23.4292 34.3934 23.2676 34.4795C23.0952 34.5656 22.912 34.6302 22.7072 34.6733C22.9766 34.275 23.1383 33.8551 23.2137 33.403C22.9551 33.5107 22.7287 33.6614 22.4809 33.7044C22.0929 33.769 21.7049 33.769 21.3062 33.8013C21.2954 33.7798 21.2846 33.7582 21.2739 33.7367C21.3277 33.6937 21.3708 33.6398 21.4355 33.6075C21.7157 33.4784 21.9959 33.36 22.2761 33.2308C22.33 33.2092 22.3731 33.177 22.4809 33.1124C22.2115 33.0801 22.0175 33.0585 21.8235 33.037C21.6295 33.0155 21.4355 32.994 21.2308 32.9186C21.4894 32.811 21.748 32.7141 21.9851 32.5741C22.2222 32.4342 22.427 32.2512 22.6964 32.0574C22.5886 32.0359 22.5348 32.0144 22.4917 32.0144C21.7049 32.0789 20.929 31.9928 20.1746 31.756C20.0668 31.7237 19.9698 31.6591 19.8729 31.5838C20.6272 31.573 21.3708 31.4869 22.0606 31.1855C21.6726 31.1962 21.2846 31.1747 20.9074 31.0671C20.541 30.9594 20.1854 30.8518 19.8297 30.7011C19.8297 30.6795 19.8297 30.658 19.8297 30.6365C19.8944 30.6257 19.9698 30.6042 20.0345 30.6042C20.7027 30.658 21.3493 30.5611 21.9959 30.3996C22.3084 30.3243 22.6318 30.2489 22.9335 30.1413C23.5693 29.926 23.8388 30.4965 23.7849 30.9164C23.731 31.3147 23.6879 31.7129 23.634 32.122C23.6017 32.3804 23.6987 32.5634 23.9142 32.6925C24.1729 32.8432 24.3345 33.0801 24.4423 33.3492C24.5824 33.6183 24.5716 33.8982 24.4423 34.1781ZM21.3277 34.9208C21.2631 34.9101 21.1984 34.8993 21.1338 34.8885C20.7889 34.7809 20.444 34.7055 20.0884 34.7271C19.625 34.7486 19.1616 34.7809 18.6982 34.7594C18.3318 34.7378 17.9546 34.7594 17.5881 34.6302C17.2541 34.501 16.9846 34.2965 16.7906 34.0058C16.5859 33.7044 16.6182 33.3707 16.726 33.037C16.8122 32.7679 16.7906 32.671 16.5212 32.6172C16.241 32.5526 15.9608 32.4988 15.6698 32.4988C15.1526 32.4772 14.646 32.4557 14.1395 32.6064C13.6761 32.7464 13.2558 32.9617 12.9756 33.3815C12.5445 34.0166 12.523 34.7055 12.7816 35.416C12.8032 35.4698 12.814 35.5344 12.8355 35.599C12.814 35.6098 12.8032 35.6313 12.7816 35.6421C12.7062 35.5775 12.62 35.5129 12.5661 35.4375C12.1673 34.9316 12.1242 34.3503 12.2428 33.7475C12.3074 33.4676 12.4368 33.1877 12.5769 32.9294C12.8571 32.4234 13.3636 32.1974 13.8809 32.0036C14.4521 31.7883 15.0448 31.7129 15.6483 31.8421C15.9393 31.9067 16.2195 31.9713 16.5104 32.0144C16.9954 32.0789 17.4804 32.0682 17.9546 31.939C17.9977 31.9282 18.0516 31.9175 18.0947 31.8959C18.418 31.7775 18.6443 31.8852 18.8706 32.1435C19.1185 32.4342 19.431 32.671 19.7112 32.9294C19.7651 32.9832 19.819 33.037 19.8729 33.0801C19.8621 33.1016 19.8513 33.1231 19.8297 33.1447C19.722 33.1339 19.625 33.1231 19.4849 33.1124C19.5172 33.1877 19.528 33.2415 19.5603 33.2846C19.8729 33.769 20.3363 34.0597 20.8428 34.3073C20.929 34.3503 21.026 34.3934 21.1122 34.4364C21.3709 34.5548 21.3816 34.5764 21.3277 34.9208ZM19.0754 36.8477C18.8275 37.02 18.1593 36.9339 17.6959 36.6863C17.2325 36.4387 16.8338 35.9112 16.8338 35.5129C17.2002 35.5344 17.5343 35.6098 17.836 35.8143C18.1593 36.0404 18.4611 36.2987 18.7628 36.5463C18.8598 36.6432 18.9676 36.7508 19.0754 36.8477ZM14.3335 34.7917C14.0964 34.9101 13.6653 34.7809 13.5683 34.5441C13.5468 34.4795 13.5576 34.3826 13.6007 34.3288C13.6869 34.2104 13.7839 34.092 13.9024 34.0058C14.118 33.8551 14.3551 33.726 14.6353 33.6721C14.8939 34.092 14.7107 34.5871 14.3335 34.7917ZM15.5944 29.2263C15.4651 29.3985 15.2927 29.5385 15.1526 29.6999C14.7861 30.1305 14.8508 30.5396 15.325 30.841C15.5297 30.9702 15.713 31.1101 15.7992 31.3469C15.8207 31.4115 15.8207 31.4761 15.8315 31.5515C15.4759 31.5407 15.1633 31.5299 14.8508 31.5192C14.1719 31.4977 13.5468 31.6699 12.9648 32.0251C12.9002 32.0682 12.7924 32.1005 12.717 32.0897C12.2212 32.0251 11.7255 31.9067 11.2729 31.6699C11.1112 31.5838 10.9388 31.5084 10.7771 31.4331C10.8094 31.1317 11.0681 30.6472 11.2836 30.4642C11.6716 30.1413 12.0919 29.9152 12.6092 29.8399C12.911 29.7968 13.2019 29.6892 13.4821 29.5923C14.215 29.3447 14.9155 29.0325 15.5836 28.645C15.616 28.6235 15.6591 28.6127 15.6914 28.6127C15.713 28.6127 15.7237 28.6127 15.7776 28.6235C15.8854 28.8711 15.7237 29.0541 15.5944 29.2263ZM16.4242 28.6342C16.6613 28.3328 16.823 28.3005 17.1463 28.5158C17.1894 28.5373 17.2217 28.5696 17.2648 28.6019C17.2756 28.6127 17.2864 28.6342 17.2972 28.6881C16.92 29.1725 16.3057 29.3662 15.8531 29.7968C15.7237 29.56 15.7345 29.4631 15.8746 29.2909C16.0686 29.0648 16.2518 28.8495 16.4242 28.6342ZM18.1162 19.3765C17.7606 19.5595 17.3942 19.7533 17.0277 19.9256C16.8445 20.0117 16.6398 20.0763 16.435 20.1193C16.1548 20.1839 15.9285 20.0655 15.7453 19.8717C15.6267 19.7533 15.6267 19.6457 15.7561 19.538C16.047 19.312 16.3919 19.1397 16.7691 19.2474C17.1247 19.355 17.4265 19.2904 17.7282 19.1074C17.7821 19.0751 17.8252 19.0428 17.8791 19.0105C18.1809 18.806 18.224 18.8168 18.4072 19.2043C18.2994 19.2689 18.2132 19.3335 18.1162 19.3765ZM19.9698 21.6049C19.2478 21.3896 18.4934 21.2388 17.8145 20.8728C17.6959 20.8083 17.5343 20.7544 17.5343 20.6037C17.545 20.4315 17.7282 20.41 17.8468 20.3884C18.1593 20.3561 18.4719 20.3561 18.7952 20.3561C18.8598 20.3561 18.9245 20.3992 18.9784 20.4315C19.4094 20.7329 19.7543 21.1204 20.0992 21.5618C20.0237 21.5833 19.9914 21.6049 19.9698 21.6049ZM18.612 25.2218C18.1054 25.3079 17.6097 25.4156 17.1032 25.534C16.5428 25.6632 16.4566 25.5986 16.3811 25.0388C16.3596 24.8558 16.338 24.662 16.3165 24.479C16.3057 24.479 16.2949 24.479 16.2841 24.4683C16.3811 23.8116 16.4781 23.1442 16.5859 22.4876C16.6182 22.283 16.6613 22.0785 16.726 21.8847C16.7799 21.691 16.823 21.6694 17.0277 21.691C17.739 21.7879 18.4503 21.874 19.1724 21.9816C19.237 21.9924 19.3017 22.0247 19.3663 22.0462C19.4849 22.0893 19.528 22.1646 19.5172 22.2938C19.4202 23.155 19.2478 24.0054 19.0323 24.845C18.9676 25.0711 18.849 25.1787 18.612 25.2218ZM20.9829 24.9096C21.1661 24.296 21.3601 23.6824 21.5648 23.0258C21.6511 23.0904 21.7049 23.1227 21.748 23.1765C21.9528 23.4026 22.1576 23.6286 22.3623 23.8547C22.5455 24.0592 22.4917 24.5221 22.2653 24.6728C22.0821 24.7912 21.2631 24.9527 20.9829 24.9096ZM19.9914 25.7708C20.2608 26.1045 20.5302 26.4275 20.7889 26.7612C20.8967 26.9011 21.0044 27.041 21.0906 27.2025C21.123 27.2671 21.1445 27.3963 21.1122 27.4393C21.0583 27.5039 20.9398 27.5578 20.8643 27.547C20.4333 27.4609 20.0237 27.3102 19.7974 26.8903C19.7112 26.7181 19.6142 26.6212 19.4094 26.675C19.3663 26.6858 19.2909 26.6643 19.2478 26.632C19.1185 26.5243 18.9891 26.4167 18.8706 26.2983C18.7844 26.2229 18.7628 26.1368 18.8275 26.0399C18.9137 25.9 19.0107 25.76 19.0754 25.6093C19.2262 25.2541 19.3987 24.9096 19.4957 24.5436C19.6681 23.9193 19.7866 23.2842 19.9375 22.6167C20.2285 22.5414 20.5518 22.4445 20.9398 22.3476C20.929 22.4876 20.929 22.5952 20.9074 22.6921C20.6919 23.3595 20.4548 24.0162 20.2285 24.6728C20.1423 24.9204 20.0561 25.1787 19.9591 25.4263C19.8944 25.5447 19.9052 25.6632 19.9914 25.7708ZM11.8871 32.8863C11.413 32.7679 10.9711 32.5849 10.5616 32.3373C10.3999 32.2404 10.3999 32.1866 10.5508 31.9175C11.1328 32.1112 11.7255 32.3158 12.3182 32.5203C12.2967 32.7894 12.1242 32.9401 11.8871 32.8863ZM9.96885 30.8948C9.69942 30.7872 9.52699 30.6257 9.43 30.3889C9.39767 30.3135 9.45155 30.2059 9.49466 30.1198C9.63476 29.8076 9.80719 29.4954 9.92574 29.1832C10.2383 28.3759 10.3137 27.5255 10.2059 26.675C10.1521 26.1906 9.89341 25.76 9.55932 25.4048C9.47311 25.3079 9.43 25.2218 9.46233 25.0926C9.63476 24.5221 9.79641 23.9408 9.97962 23.3595C10.2059 22.6167 10.7125 22.1646 11.4561 21.9493C11.7794 21.8524 12.1135 21.7879 12.4475 21.8417C12.5014 21.8524 12.5553 21.874 12.6415 21.9063C12.5984 21.9924 12.5769 22.057 12.523 22.1216C12.0703 22.7459 11.8548 23.4564 11.747 24.2099C11.65 24.8558 11.6393 25.5017 11.65 26.1583C11.6608 26.4167 11.6608 26.675 11.7039 26.9226C11.747 27.2563 11.7039 27.5685 11.6716 27.8915C11.6285 28.2682 11.4345 28.5589 11.1435 28.7849C10.9711 28.9141 10.7879 29.0433 10.6047 29.1617C10.4107 29.2801 10.2922 29.4524 10.2383 29.6784C10.1628 30.0552 10.0658 30.4535 9.96885 30.8948ZM10.3891 35.0608C10.2922 35.0931 10.2167 35.1146 10.1413 35.1469C10.0658 35.2976 10.1952 35.373 10.2383 35.4806C10.2598 35.5344 10.249 35.6098 10.2598 35.6744C10.1952 35.6636 10.1089 35.6744 10.0551 35.6421C9.81797 35.4914 9.76408 35.3514 9.87185 35.0931C9.93651 34.9316 9.95807 34.7917 9.90418 34.6087C9.80719 34.3288 9.82874 34.135 9.90418 33.9628C10.0443 34.0489 10.346 34.7055 10.3891 35.0608ZM9.67787 31.6161C9.46233 31.2931 9.23601 31.024 9.10669 30.6903C9.12824 30.6688 9.1498 30.658 9.17135 30.6365C9.23601 30.7011 9.31145 30.7549 9.37611 30.8195C9.48388 30.9271 9.58088 31.0563 9.69942 31.1639C9.8503 31.3362 9.8503 31.3362 9.67787 31.6161ZM11.5638 8.40727C11.1759 7.85827 10.7987 7.30927 10.4107 6.76027C10.346 6.66338 10.2059 6.52344 10.3353 6.42656C10.4969 6.31891 10.5292 6.52344 10.5939 6.62033C10.9711 7.12627 11.3375 7.64298 11.7039 8.14892C11.7686 8.23504 11.8117 8.34268 11.8764 8.45033C11.7039 8.54721 11.6285 8.50416 11.5638 8.40727ZM6.46634 24.2745C6.64955 24.4252 6.85431 24.5436 7.05907 24.662C7.25306 24.7697 7.26383 24.7912 7.16684 24.985C7.14529 25.028 7.11296 25.0711 7.0914 25.1142C6.48789 26.2552 6.33702 27.4286 6.77887 28.6558C6.85431 28.8818 6.96208 29.0971 7.08063 29.377C7.18839 28.8603 7.27461 28.4189 7.3716 27.9776C7.50093 27.3748 7.77035 26.8688 8.29842 26.5136C8.47085 26.3952 8.62173 26.2552 8.78338 26.126C8.81571 26.0938 8.8696 26.083 8.92348 26.0615C9.08514 26.2875 9.22524 26.5243 9.23601 26.7935C9.26834 27.3532 9.20368 27.8915 8.92348 28.3974C8.7295 28.7526 8.54629 29.1079 8.38464 29.4846C8.05055 30.2597 8.14754 30.9917 8.64328 31.6591C8.81571 31.8959 9.02047 32.1005 9.22524 32.3481C9.1498 32.4449 9.06358 32.5418 8.97737 32.6495C8.82649 32.8432 8.82649 33.0155 8.96659 33.22C9.03125 33.3061 9.11747 33.3815 9.18213 33.4676C9.2899 33.6075 9.43 33.7475 9.48388 33.909C9.62398 34.3395 9.75331 34.7701 9.62398 35.2438C9.59165 35.416 9.60243 35.6098 9.80719 35.7282C10.1736 35.9327 10.5724 35.9866 10.9819 35.9435C11.1651 35.922 11.1866 35.8681 11.1651 35.6744C11.1328 35.4268 11.0573 35.2007 10.8957 34.9962C10.7017 34.7486 10.5077 34.501 10.3137 34.2427C10.012 33.8228 9.97962 33.2308 10.2383 32.8432C10.7987 33.1231 11.4022 33.2954 12.0272 33.3815C12.0272 33.4676 12.038 33.5107 12.0272 33.5645C11.9841 33.952 11.9626 34.3288 12.0057 34.7163C12.0596 35.2653 12.5014 35.8466 13.0187 36.0081C13.6007 36.1803 14.1611 36.0942 14.6891 35.8358C15.228 35.5667 15.5729 35.0393 15.4651 34.2857C15.4328 34.0704 15.3681 33.8551 15.3142 33.6075C15.4328 33.4353 15.6483 33.4784 15.8423 33.4676C16.0363 33.4568 16.1871 33.5322 16.2626 33.726C16.3488 33.9412 16.435 34.1673 16.532 34.3826C16.5859 34.501 16.5643 34.5764 16.5104 34.684C16.3488 34.9854 16.1979 35.2976 16.0363 35.6098C15.9393 35.7928 15.9932 35.9327 16.1333 36.0619C16.2302 36.148 16.338 36.2126 16.435 36.2987C16.5967 36.4494 16.5859 36.5894 16.3703 36.6324C16.1871 36.6755 15.9716 36.6755 15.7884 36.6324C15.4435 36.5571 15.2172 36.6647 15.0663 36.9769C15.0232 37.0738 14.9693 37.1599 14.84 37.1814C14.5275 37.2353 14.3766 37.4613 14.2688 37.7304C14.2473 37.7735 14.2688 37.8273 14.2688 37.9134C14.3982 37.8596 14.4952 37.8058 14.5922 37.7735C15.228 37.5151 15.8746 37.5582 16.5212 37.6981C17.1894 37.8381 17.8145 38.1287 18.3964 38.4947C18.4287 38.5163 18.4719 38.5163 18.515 38.527C18.5796 38.2149 18.5257 37.9673 18.2348 37.8166C18.1593 37.7735 18.0839 37.7197 17.9977 37.6981C17.5881 37.569 17.1894 37.4506 16.7799 37.3214C16.6721 37.2891 16.5428 37.2783 16.5212 37.0953C16.7691 37.0307 17.017 37.02 17.2541 37.0738C17.8683 37.203 18.4826 37.3644 19.0969 37.5151C19.2801 37.5582 19.4633 37.6336 19.6681 37.6981C19.6896 37.6336 19.722 37.569 19.722 37.5259C19.6896 37.2568 19.6465 36.9877 19.4957 36.7401C19.3771 36.5571 19.2801 36.3633 19.1724 36.1803C19.0323 35.9543 19.0107 35.7174 19.1185 35.4483C19.6358 35.4268 20.1207 35.6205 20.6057 35.7497C21.1122 35.8789 21.5972 36.0619 22.136 36.2234C22.1576 35.9973 22.1683 35.7928 22.1899 35.599C22.2761 35.5667 22.3516 35.5344 22.4162 35.5129C22.6964 35.416 22.6856 35.416 22.8904 35.6421C23.44 36.2664 24.1405 36.6647 24.938 36.8908C25.0997 36.9338 25.2721 36.9661 25.4876 36.9016C25.3583 36.8047 25.2613 36.7401 25.1859 36.654C25.0997 36.5678 24.9811 36.4925 24.9919 36.3526C25.0242 36.3418 25.0458 36.3203 25.0566 36.3203C25.3583 36.4064 25.6601 36.5033 25.9618 36.6001C26.1989 36.6647 26.2744 36.6324 26.3713 36.4064C26.4683 36.1803 26.5115 35.9327 26.4899 35.6851C26.4791 35.6098 26.4899 35.5452 26.4899 35.4483C26.7162 35.4698 26.8563 35.5883 27.0072 35.6744C27.4167 35.9112 27.4167 35.9112 27.7724 35.5883C27.8047 35.556 27.8478 35.5237 27.8801 35.4806C28.5267 34.7594 28.947 33.9197 29.1302 32.9724C29.1626 32.8325 29.2165 32.7033 29.2488 32.5741C29.4643 32.5418 29.6691 32.671 29.8307 32.5203C29.8092 32.3373 29.5505 32.3158 29.6152 32.1005C29.9062 32.0574 30.2079 32.122 30.4989 31.9498C30.445 31.9067 30.4127 31.8744 30.3696 31.8529C29.9708 31.6268 29.6475 31.3362 29.4212 30.9379C29.1734 30.4965 28.947 30.0552 28.6992 29.6138C28.5052 29.2694 28.3866 29.2371 28.0741 29.4524C28.0633 29.4631 28.0418 29.4524 27.9663 29.4524C27.837 29.2263 27.6754 28.9679 27.5353 28.7203C27.4383 28.5481 27.3844 28.3651 27.3736 28.1606C27.3736 28.0099 27.2982 27.8592 27.212 27.73C27.115 27.5793 27.018 27.5793 26.8563 27.6762C26.8024 27.7085 26.7378 27.7408 26.6623 27.7946C26.63 27.5793 26.6084 27.3855 26.5761 27.1702C26.436 27.1702 26.3282 27.1595 26.2097 27.1702C26.0696 27.181 25.9834 27.1272 25.9079 27.0195C25.7894 26.8365 25.6708 26.6535 25.5739 26.4598C25.4876 26.309 25.5308 26.2229 25.714 26.2014C25.7571 26.2014 25.7894 26.2014 25.8325 26.2014C26.8779 26.1906 27.8693 25.9646 28.7962 25.4694C29.1949 25.2541 29.6044 25.1142 30.0355 24.9957C30.2079 24.9527 30.3911 24.9312 30.5312 25.0926C30.833 25.4156 31.1348 25.7277 31.4257 26.0507C31.5658 26.2122 31.6413 26.3952 31.5982 26.6212C31.5658 26.8042 31.6413 26.9334 31.7598 27.0733C31.8999 27.224 32.0077 27.407 32.1155 27.5793C32.2556 27.7946 32.2663 28.0206 32.1909 28.2575C32.137 28.4082 32.0939 28.5589 32.0292 28.6988C31.9323 28.9141 31.9861 29.0971 32.1586 29.2263C32.4064 29.4093 32.6651 29.5708 32.9345 29.7215C33.1285 29.8291 33.247 29.7538 33.2794 29.5277C33.3225 29.1402 33.3009 28.7526 33.0854 28.4082C32.816 27.9668 32.6759 27.4932 32.6759 26.9765C32.6759 26.4813 32.4603 26.0938 32.1262 25.7385C31.8676 25.4694 31.6521 25.1572 31.4473 24.845C31.3072 24.6405 31.221 24.4037 31.1024 24.1884C30.9084 23.8439 30.6714 23.5748 30.2187 23.6179C30.014 23.6394 29.8092 23.6394 29.5937 23.6394C29.5398 23.6394 29.4859 23.6071 29.432 23.5856C29.432 23.564 29.4212 23.5425 29.4212 23.521C29.8092 23.4133 30.0355 23.1119 30.2942 22.832C30.5959 22.4983 30.8977 22.1754 31.2102 21.8632C31.3719 21.7017 31.415 21.7017 31.5766 21.8524C31.6305 21.8955 31.6736 21.9493 31.7167 22.0031C31.9538 22.2615 32.1801 22.5199 32.428 22.7567C32.5789 22.9074 32.6651 23.0581 32.6435 23.2842C32.622 23.5102 32.719 23.6609 32.9453 23.7363C33.0207 23.7578 33.1069 23.8224 33.15 23.8977C33.3979 24.2745 33.3656 24.479 33.0638 24.8235C33.0423 24.8558 33.0099 24.8881 32.9776 24.9096C32.7944 25.0926 32.7944 25.2972 32.8914 25.5125C33.0315 25.8139 33.2578 26.0292 33.5703 26.1368C33.829 26.2229 33.9583 26.1799 33.9907 25.9107C34.023 25.6847 34.0122 25.4586 33.9691 25.2326C33.8613 24.7159 33.732 24.2099 33.8074 23.6824C33.8505 23.3703 33.7104 23.1334 33.5057 22.9182C33.1824 22.5844 32.8698 22.24 32.5681 21.8847C32.2663 21.5295 31.9754 21.1635 31.8676 20.7006C31.846 20.6253 31.8137 20.5499 31.7814 20.4853C31.6413 20.2377 31.4257 20.1624 31.1886 20.3131C31.0054 20.4315 30.8546 20.5822 30.7145 20.7544C30.4774 21.0343 30.1972 21.2496 29.8739 21.4003C29.6799 21.4972 29.5613 21.4541 29.4751 21.2496C29.4212 21.142 29.3889 21.0236 29.3781 20.9159C29.2811 20.3561 29.0656 19.8394 28.7315 19.3765C28.5806 19.1828 28.419 18.9998 28.2681 18.7953C28.0094 18.4508 27.6969 18.1494 27.546 17.7188C27.2551 16.8899 26.9425 16.0718 26.6516 15.2429C26.5869 15.0814 26.5438 14.9092 26.4791 14.7046C26.6839 14.7262 26.8563 14.7262 27.018 14.7585C27.3844 14.8123 27.74 14.8769 28.0418 15.1137C28.1927 15.2321 28.322 15.3721 28.4836 15.4689C28.6022 15.5443 28.7423 15.6089 28.8824 15.6412C28.947 15.6627 29.0548 15.6089 29.1087 15.5551C29.1302 15.5335 29.0764 15.4259 29.0548 15.3505C29.044 15.3182 29.0333 15.2859 29.0225 15.2537C29.1302 15.2752 29.2057 15.3182 29.2703 15.3613C29.4428 15.4797 29.5721 15.4905 29.7122 15.329C29.7769 15.2429 29.8092 15.1245 29.82 15.0061C29.8307 14.8231 29.8092 14.6293 29.7984 14.4463C29.7876 14.2525 29.7122 14.1126 29.529 14.0265C29.4104 13.9619 29.3027 13.865 29.2272 13.7681C28.85 13.2514 28.4836 12.7132 28.1172 12.1857C28.0526 12.0888 27.9987 11.9812 27.9663 11.8735C27.9017 11.6475 27.837 11.4429 27.6646 11.2707C27.643 11.2492 27.6538 11.2061 27.643 11.1523C27.7508 11.1308 27.837 11.12 27.9663 11.0985C27.8586 10.8832 27.7939 10.6679 27.6646 10.4956C27.5784 10.3665 27.4275 10.2373 27.2874 10.1942C27.1042 10.1404 26.8886 10.1189 26.7054 10.1619C26.3282 10.248 26.0588 10.1296 25.8002 9.88204C25.6493 9.7421 25.4661 9.63445 25.3044 9.51604C25.2613 9.49451 25.2074 9.50528 25.132 9.49451C25.1428 9.61292 25.1536 9.70981 25.1751 9.83898C24.7225 9.73134 24.3992 9.68828 24.0543 9.64522C24.0328 9.90357 24.3022 9.98969 24.3561 10.2158C24.2591 10.2373 24.1836 10.2588 24.0974 10.2588C23.6771 10.2803 23.246 10.2588 22.8257 10.388C22.7826 10.4095 22.6856 10.3665 22.6318 10.3234C22.427 10.1727 22.2115 10.1404 21.9636 10.205C21.5972 10.2911 21.2523 10.4526 20.9398 10.6571C20.8643 10.6786 20.7997 10.7002 20.6811 10.7648C20.6811 10.5602 20.638 10.388 20.6919 10.248C20.9074 9.60216 20.8751 8.96704 20.6703 8.33192C20.5841 8.0628 20.4656 7.80445 20.3578 7.5138C20.3794 7.49227 20.4009 7.44921 20.4333 7.41692C20.6919 7.20162 20.7997 6.90021 20.8212 6.57727C20.832 6.4158 20.7673 6.23279 20.6811 6.08209C20.6057 5.95291 20.444 6.04979 20.3255 6.02826C20.1962 6.0175 20.0453 5.99597 19.9375 5.92062C19.5927 5.70532 19.2478 5.71609 18.8922 5.88832C18.4503 6.11438 17.9977 6.29738 17.5019 6.37274C17.1355 6.42656 16.7799 6.44809 16.4242 6.31891C16.3272 6.28662 16.2302 6.26509 16.1009 6.23279C16.2195 6.69568 16.5212 6.95403 16.8553 7.19086C16.7475 7.38462 16.5536 7.19086 16.4458 7.30927C16.4458 7.34156 16.4458 7.36309 16.4566 7.37386C16.7691 7.63221 17.114 7.79368 17.5343 7.77215C17.6313 7.76139 17.7282 7.77215 17.8252 7.79368C18.0731 7.86904 18.3102 7.89056 18.5365 7.77215C18.612 7.72909 18.6982 7.6968 18.7736 7.76139C18.7736 7.79368 18.7844 7.79368 18.7736 7.80445C18.7628 7.82598 18.7521 7.85827 18.7305 7.8798C18.3102 8.21351 18.1809 8.65486 18.1809 9.16081C18.1809 9.42992 18.1485 9.68828 18.03 9.93587C17.9761 10.0327 17.9761 10.1404 17.9438 10.248C17.9222 10.3234 17.9007 10.388 17.8683 10.4633C17.6528 10.4095 17.4696 10.3449 17.2756 10.3126C17.1463 10.2911 16.9954 10.2803 16.8769 10.3342C16.7044 10.3988 16.5859 10.3772 16.435 10.2803C16.1225 10.0758 15.7884 10.0435 15.4543 10.248C15.2388 10.3772 15.0448 10.5172 14.84 10.6571C14.6891 10.7648 14.5383 10.8832 14.3766 10.98C14.2688 11.0446 14.1395 11.0554 14.0749 10.9155C13.9455 10.6248 13.8162 10.3234 13.6869 10.022C13.5683 9.7744 13.4821 9.49451 13.1157 9.51604C12.9648 9.52681 12.911 9.41916 12.911 9.27922C12.911 9.20386 12.9325 9.08545 12.8894 9.05316C12.7062 8.90245 12.6523 8.69792 12.5984 8.48263C12.5769 8.37498 12.5122 8.29963 12.4044 8.35345C12.3937 8.48263 12.3937 8.59027 12.3937 8.63333C12.4583 8.81633 12.5122 8.94551 12.5661 9.10698C12.5553 9.10698 12.5876 9.11775 12.6308 9.12851C12.7601 9.17157 12.7816 9.27922 12.6954 9.35457C12.5876 9.46222 12.4583 9.56987 12.3182 9.63445C12.2643 9.66675 12.1242 9.63445 12.0811 9.58063C11.9195 9.39763 11.6608 9.24692 11.8333 8.93475C11.7686 8.63333 11.9087 8.47186 12.1781 8.39651C12.1889 8.39651 12.1997 8.36421 12.1997 8.35345C12.1135 8.23504 12.0165 8.12739 11.9302 8.00898C11.5638 7.5138 11.219 7.01862 10.8526 6.52344C10.7663 6.4158 10.6693 6.32968 10.5616 6.26509C10.4323 6.17897 10.2706 6.21126 10.1844 6.31891C10.0766 6.42656 10.0982 6.55574 10.1628 6.67415C10.2059 6.76027 10.2706 6.84638 10.3245 6.92174C10.734 7.50303 11.1435 8.08433 11.5531 8.66563C11.6177 8.76251 11.6932 8.84863 11.6177 8.95627C11.5207 9.11775 11.5854 9.24692 11.6824 9.36534C11.7794 9.49451 11.8871 9.60216 11.9734 9.73134C12.0596 9.86051 12.1673 10.0005 12.1889 10.1404C12.2428 10.4526 12.3937 10.7109 12.5445 10.98C12.6308 11.12 12.717 11.2707 12.7924 11.4106C12.9325 11.6798 12.9002 11.9058 12.6739 12.1103C12.5445 12.2288 12.3937 12.3364 12.2859 12.4763C12.1242 12.6701 11.9841 12.8854 11.8656 13.1115C11.7901 13.2514 11.7578 13.4344 11.9087 13.5959C12.0919 13.5528 12.2859 13.5205 12.4691 13.4559C12.7709 13.3483 13.0187 13.5636 12.9648 13.9081C12.9325 14.1126 12.8247 14.2741 12.6092 14.3494C12.5122 14.3817 12.4044 14.4032 12.2967 14.4463C11.9302 14.5755 11.5638 14.7046 11.219 14.8554C10.6693 15.1029 10.637 15.7381 10.9172 16.1041C11.1543 16.4162 11.1112 16.5777 10.7987 16.8361C10.6586 16.9437 10.5077 17.0406 10.3676 17.1482C10.1952 17.2667 10.0874 17.4281 10.1197 17.6542C10.1413 17.7941 10.0766 17.8802 9.97962 17.9556C9.79641 18.1278 9.66709 18.3324 9.59165 18.58C9.54854 18.6984 9.54854 18.8168 9.64554 18.9029C9.74253 18.9998 9.82874 18.9244 9.91496 18.8921C10.1305 18.806 10.3353 18.6984 10.5508 18.6553C11.0789 18.5477 11.6177 18.4615 12.1673 18.4831C12.62 18.5046 13.0618 18.5692 13.4282 18.8383C13.7192 19.0428 13.9779 19.2904 14.2473 19.5165C14.3551 19.6134 14.4736 19.721 14.6029 19.7748C14.7538 19.8394 14.9478 19.8179 15.0663 19.904C15.1957 20.0009 15.2495 20.1731 15.3465 20.3131C15.3573 20.3238 15.3573 20.3238 15.3681 20.3346C15.4974 20.4423 15.4759 20.5822 15.4435 20.7221C15.4112 20.8621 15.2819 20.8406 15.1741 20.8513C14.5922 20.9267 14.021 21.002 13.4606 21.1958C13.3528 21.2281 13.2774 21.2173 13.1912 21.1527C13.0403 21.0343 12.9002 20.9159 12.7385 20.819C12.1242 20.3992 11.4776 20.087 10.7232 20.0332C10.1736 19.9901 9.68864 20.1731 9.27912 20.5391C8.78338 20.9805 8.4493 21.5403 8.15832 22.1323C8.01822 22.423 7.92123 22.7136 7.85656 23.0258C7.7919 23.3487 7.70569 23.6609 7.61947 23.9731C7.56559 24.1453 7.49015 24.1884 7.36083 24.1023C7.02674 23.887 6.6711 23.704 6.44479 23.3595C6.15381 22.9181 6.15381 22.6921 6.59566 22.2507C6.66032 22.1861 6.75732 22.1646 6.85431 22.1216C6.92975 22.3046 6.84353 22.4876 7.00519 22.6275C7.12373 22.7351 7.20995 22.8859 7.31772 23.015C7.66258 22.6921 7.58714 22.0785 7.19917 21.8847C7.12373 21.8524 7.02674 21.8201 6.94052 21.8309C6.45556 21.874 6.1107 22.0462 5.95982 22.5844C5.78739 23.2196 5.90594 23.8332 6.46634 24.2745Z" fill="white"/>
<path d="M20.0238 10.3558C19.8621 10.1943 19.6789 10.2266 19.4634 10.2696C19.6143 10.6034 19.7867 10.6249 20.0238 10.3558Z" fill="white"/>
<path d="M51.5678 1.62553H52.9796V5.64078H50.4901C51.1799 4.82266 51.5355 3.57395 51.5678 1.62553ZM49.8543 6.81414H53.831V8.18126H55.135V5.64078H54.2836V0.441406H50.3177V1.49635C50.3177 3.8323 49.8651 4.9626 49.046 5.64078H48.5503V8.18126H49.8543V6.81414Z" fill="white"/>
<path d="M56.5356 0.441406V6.81414H60.9434V5.64078H57.8397V4.02607H60.0382V2.9173H57.8397V1.62553H60.8249V0.441406H56.5356Z" fill="white"/>
<path d="M62.4956 0.441406V6.81414H63.7996V1.62553H66.3969V6.81414H67.7009V0.441406H62.4956Z" fill="white"/>
<path d="M72.0441 2.75583L72.8955 4.90878H71.1927L72.0441 2.75583ZM71.8285 0.322998L68.9727 6.81414H70.3737L70.7293 5.98525H73.3373L73.693 6.81414H75.094L72.2704 0.322998H71.8285Z" fill="white"/>
<path d="M77.6908 1.59323H78.7792C79.3827 1.59323 79.7492 1.97 79.7492 2.49747C79.7492 3.04647 79.3935 3.42324 78.7792 3.42324H77.6908V1.59323ZM77.6908 4.5643H78.7792C80.1264 4.5643 81.0747 3.72465 81.0747 2.49747C81.0747 1.24876 80.1156 0.441406 78.7792 0.441406H76.376V6.81414H77.68V4.5643H77.6908Z" fill="white"/>
<path d="M82.0879 0.441406V1.62553H84.1247V6.81414H85.4287V1.62553H87.4764V0.441406H82.0879Z" fill="white"/>
<path d="M90.4938 2.75583L91.3452 4.90878H89.6424L90.4938 2.75583ZM90.2782 0.322998L87.4224 6.81414H88.8234L89.179 5.98525H91.787L92.1427 6.81414H93.5437L90.7201 0.322998H90.2782Z" fill="white"/>
<path d="M100.656 0.322998L97.9622 3.77848L95.268 0.322998H94.8369V6.81414H96.1409V3.41248L97.7467 5.42549H98.1778L99.7835 3.41248V6.81414H101.088V0.322998H100.656Z" fill="white"/>
<path d="M102.974 0.441406V6.81414H107.381V5.64078H104.278V4.02607H106.465V2.9173H104.278V1.62553H107.263V0.441406H102.974Z" fill="white"/>
<path d="M113.05 0.441406V2.885H110.237V0.441406H108.933V6.81414H110.237V4.06913H113.05V6.81414H114.365V0.441406H113.05Z" fill="white"/>
<path d="M115.637 0.441406V1.62553H117.674V6.81414H118.978V1.62553H121.025V0.441406H115.637Z" fill="white"/>
<path d="M54.2942 18.4076V12.0349H49.0781V18.4076H50.3821V13.2083H52.9902V18.4076H54.2942Z" fill="white"/>
<path d="M57.4734 13.1867H58.5619C59.1762 13.1867 59.5318 13.5635 59.5318 14.091C59.5318 14.64 59.1762 15.0167 58.5619 15.0167H57.4734V13.1867ZM57.4734 16.1578H58.5619C59.909 16.1578 60.8682 15.3182 60.8682 14.091C60.8682 12.8423 59.909 12.0349 58.5619 12.0349H56.1694V18.4076H57.4734V16.1578Z" fill="white"/>
<path d="M66.6338 17.2235H63.5409V15.6196H65.7286V14.5H63.5409V13.2083H66.5261V12.0349H62.2261V18.4076H66.6338V17.2235Z" fill="white"/>
<path d="M70.7939 13.2083H72.2057V17.2235H69.7162C70.4059 16.4054 70.7724 15.1567 70.7939 13.2083ZM69.0804 18.4077H73.0571V19.764H74.3611V17.2235H73.5097V12.0242H69.5438V13.0791C69.5438 15.4151 69.0912 16.5454 68.2721 17.2235H67.7764V19.764H69.0804V18.4077Z" fill="white"/>
<path d="M77.0657 13.2083H79.6737V18.4076H80.9778V12.0349H75.7617V18.4076H77.0657V13.2083Z" fill="white"/>
<path d="M85.2563 15.0167H84.1678V13.1867H85.2563C85.8598 13.1867 86.2262 13.5635 86.2262 14.091C86.2262 14.64 85.8598 15.0167 85.2563 15.0167ZM85.2563 12.0349H82.853V18.4076H84.157V16.1578H85.2455C86.5926 16.1578 87.541 15.3182 87.541 14.091C87.5518 12.8423 86.6034 12.0349 85.2563 12.0349Z" fill="white"/>
<path d="M90.2244 12.0349H88.9204V18.5261H89.3407L93.145 14.4893V18.4076H94.449V11.9165H94.0071L90.2244 15.9102V12.0349Z" fill="white"/>
<path d="M100.452 14.4785H97.6282V12.0349H96.3242V18.4076H97.6282V15.6519H100.452V18.4076H101.756V12.0349H100.452V14.4785Z" fill="white"/>
<path d="M104.935 15.9102V12.0349H103.631V18.5261H104.051L107.855 14.5V18.4076H109.159V11.9165H108.728L104.935 15.9102Z" fill="white"/>
<path d="M114.16 15.3612L111.466 11.9165H111.035V18.4076H112.339V15.006L113.944 17.019H114.376L115.981 15.006V18.4076H117.285V11.9165H116.854L114.16 15.3612Z" fill="white"/>
<path d="M121.629 14.3493L122.48 16.5023H120.777L121.629 14.3493ZM119.969 18.4076L120.325 17.5788H122.933L123.288 18.4076H124.689L121.844 11.9165H121.413L118.557 18.4076H119.969Z" fill="white"/>
<path d="M126.694 18.4076H127.998V13.2083H130.045V12.0349H124.657V13.2083H126.694V18.4076Z" fill="white"/>
<path d="M135.725 17.2235H132.632V15.6196H134.819V14.5H132.632V13.2083H135.617V12.0349H131.317V18.4076H135.725V17.2235Z" fill="white"/>
<path d="M141.135 18.4076H142.439V12.0349H138.29V13.2083C138.29 15.9963 137.794 17.1051 136.77 17.2235V18.4507C138.387 18.3323 139.497 17.2989 139.529 13.2083H141.124V18.4076H141.135Z" fill="white"/>
<path d="M146.933 17.2558H145.629V15.3612H146.933C147.569 15.3612 147.924 15.7595 147.924 16.3193C147.924 16.8683 147.569 17.2558 146.933 17.2558ZM149.261 16.3085C149.261 15.0706 148.301 14.2202 146.933 14.2202H145.629V12.0242H144.325V18.3969H146.933C148.301 18.4077 149.261 17.5788 149.261 16.3085Z" fill="white"/>
<path d="M153.83 18.5261C155.069 18.5261 156.104 17.9233 156.653 16.9437L155.673 16.244C155.242 16.9221 154.649 17.3097 153.841 17.3097C152.655 17.3097 151.782 16.4485 151.782 15.2213C151.782 13.9834 152.655 13.1114 153.841 13.1114C154.638 13.1114 155.242 13.5097 155.673 14.1879L156.653 13.4882C156.093 12.5086 155.069 11.9058 153.841 11.9058C151.933 11.9058 150.435 13.3375 150.435 15.2105C150.446 17.0944 151.944 18.5261 153.83 18.5261Z" fill="white"/>
<path d="M157.71 13.2083H159.747V18.4076H161.051V13.2083H163.098V12.0349H157.71V13.2083Z" fill="white"/>
<path d="M165.631 17.2881V15.6842H167.118C167.689 15.6842 168.024 15.9963 168.024 16.4915C168.024 16.9975 167.689 17.2881 167.118 17.2881H165.631ZM165.631 13.1544H166.526C167.064 13.1544 167.355 13.4343 167.355 13.8757C167.355 14.3063 167.064 14.6077 166.526 14.6077H165.631V13.1544ZM169.317 16.5346C169.317 15.7487 168.886 15.2105 168.185 14.9629C168.487 14.6723 168.659 14.2847 168.659 13.8111C168.659 12.7561 167.819 12.0349 166.633 12.0349H164.37V18.4076H167.215C168.455 18.4076 169.317 17.6326 169.317 16.5346Z" fill="white"/>
<path d="M172.324 16.5023L173.175 14.3493L174.026 16.5023H172.324ZM172.959 11.9165L170.104 18.4076H171.505L171.86 17.5788H174.468L174.824 18.4076H176.225L173.38 11.9165H172.959Z" fill="white"/>
<path d="M54.6067 29.9906V23.5103H54.1756L50.3821 27.504V23.6179H49.0781V30.109H49.5092L53.3027 26.083V29.9906H54.6067Z" fill="white"/>
<path d="M59.8013 23.6179V30.109H60.2323L64.0258 26.083V29.9906H65.3298V23.5103H64.8988L61.1053 27.504V23.6179H59.8013Z" fill="white"/>
<path d="M68.5091 27.2456H71.3326V29.9907H72.6367V23.6179H71.3326V26.0615H68.5091V23.6179H67.2051V29.9907H68.5091V27.2456Z" fill="white"/>
<path d="M79.954 29.9907V23.6179H78.65V26.0615H75.8265V23.6179H74.5225V29.9907H75.8265V27.2456H78.65V29.9907H79.954Z" fill="white"/>
<path d="M82.7993 26.8043C82.7993 25.5771 83.6614 24.7052 84.8469 24.7052C86.0108 24.7052 86.8945 25.5771 86.8945 26.8043C86.8945 28.0422 86.0108 28.9034 84.8469 28.9034C83.6506 28.9034 82.7993 28.0422 82.7993 26.8043ZM88.2416 26.8043C88.2416 24.9312 86.7113 23.4995 84.8361 23.4995C82.9609 23.4995 81.4521 24.9312 81.4521 26.8043C81.4521 28.6774 82.9609 30.1091 84.8361 30.1091C86.7113 30.1091 88.2416 28.6774 88.2416 26.8043Z" fill="white"/>
<path d="M92.4772 28.8711H90.9899V27.2672H92.4772C93.0483 27.2672 93.3824 27.5793 93.3824 28.0638C93.3824 28.5697 93.0483 28.8711 92.4772 28.8711ZM90.9792 24.7375H91.8737C92.4125 24.7375 92.7035 25.0173 92.7035 25.4587C92.7035 25.8893 92.4125 26.1907 91.8737 26.1907H90.9792V24.7375ZM93.5333 26.5459C93.8351 26.2553 94.0075 25.8678 94.0075 25.3941C94.0075 24.3392 93.1669 23.6179 91.9814 23.6179H89.7183V29.9907H92.5634C93.8027 29.9907 94.6649 29.2156 94.6649 28.1176C94.6649 27.3425 94.2338 26.7935 93.5333 26.5459Z" fill="white"/>
<path d="M97.6712 28.096L98.5226 25.9431L99.374 28.096H97.6712ZM98.3071 23.5103L95.4512 30.0014H96.8522L97.2078 29.1725H99.8158L100.171 30.0014H101.572L98.7274 23.5103H98.3071Z" fill="white"/>
<path d="M108.06 23.6179H106.756V28.8173H104.17V23.6179H102.866V29.9907H107.597V31.3578H108.901V28.8173H108.06V23.6179Z" fill="white"/>
<path d="M110.324 23.6179V30.109H110.755L114.548 26.083V29.9906H115.852V23.5103H115.421L111.628 27.504V23.6179H110.324Z" fill="white"/>
<path d="M120.734 28.9034C119.549 28.9034 118.686 28.0422 118.686 26.8043C118.686 25.5771 119.549 24.7051 120.734 24.7051C121.898 24.7051 122.782 25.5771 122.782 26.8043C122.782 28.0422 121.898 28.9034 120.734 28.9034ZM120.723 23.5103C118.848 23.5103 117.339 24.942 117.339 26.815C117.339 28.6881 118.848 30.1198 120.723 30.1198C122.599 30.1198 124.129 28.6881 124.129 26.815C124.118 24.9312 122.599 23.5103 120.723 23.5103Z" fill="white"/>
<path d="M131.048 29.9907V23.6179H129.744V26.0615H126.92V23.6179H125.616V29.9907H126.92V27.2456H129.744V29.9907H131.048Z" fill="white"/>
<path d="M137.05 26.0615H134.227V23.6179H132.923V29.9907H134.227V27.2456H137.05V29.9907H138.354V23.6179H137.05V26.0615Z" fill="white"/>
<path d="M143.247 28.9034C142.062 28.9034 141.2 28.0422 141.2 26.8043C141.2 25.5771 142.062 24.7051 143.247 24.7051C144.422 24.7051 145.295 25.5771 145.295 26.8043C145.295 28.0422 144.422 28.9034 143.247 28.9034ZM143.236 23.5103C141.361 23.5103 139.853 24.942 139.853 26.815C139.853 28.6881 141.361 30.1198 143.236 30.1198C145.112 30.1198 146.642 28.6881 146.642 26.815C146.642 24.9312 145.112 23.5103 143.236 23.5103Z" fill="white"/>
<path d="M148.129 29.9907H149.433V24.802H152.246V23.6179H148.129V29.9907Z" fill="white"/>
<path d="M156.47 28.9034C155.285 28.9034 154.423 28.0422 154.423 26.8043C154.423 25.5771 155.285 24.7051 156.47 24.7051C157.645 24.7051 158.518 25.5771 158.518 26.8043C158.518 28.0422 157.634 28.9034 156.47 28.9034ZM156.46 23.5103C154.584 23.5103 153.076 24.942 153.076 26.815C153.076 28.6881 154.584 30.1198 156.46 30.1198C158.335 30.1198 159.865 28.6881 159.865 26.815C159.865 24.9312 158.335 23.5103 156.46 23.5103Z" fill="white"/>
<path d="M167.097 26.5998H166.008V24.7697H167.097C167.7 24.7697 168.067 25.1465 168.067 25.674C168.067 26.2338 167.7 26.5998 167.097 26.5998ZM167.097 23.6179H164.693V29.9907H165.997V27.7408H167.086C168.433 27.7408 169.381 26.9012 169.381 25.674C169.392 24.436 168.444 23.6179 167.097 23.6179Z" fill="white"/>
<path d="M171.849 28.096L172.7 25.9431L173.552 28.096H171.849ZM172.485 23.5103L169.629 30.0014H171.03L171.386 29.1725H173.994L174.349 30.0014H175.75L172.905 23.5103H172.485Z" fill="white"/>
<path d="M180.621 26.6213C180.988 26.3199 181.203 25.9001 181.203 25.3833C181.203 24.2961 180.233 23.4995 179.016 23.4995C177.992 23.4995 177.14 24.0593 176.72 24.8882L177.625 25.534C177.981 25.0173 178.444 24.7052 179.005 24.7052C179.544 24.7052 179.899 25.0173 179.899 25.4587C179.899 25.8678 179.608 26.1907 179.08 26.1907H178.1V27.2672H179.36C179.932 27.2672 180.255 27.6009 180.255 28.0422C180.255 28.5912 179.738 28.9034 179.113 28.9034C178.466 28.9034 177.938 28.602 177.518 27.9776L176.602 28.6343C177.065 29.517 177.959 30.1091 179.123 30.1091C180.481 30.1091 181.548 29.3125 181.548 28.1068C181.548 27.4286 181.203 26.9119 180.621 26.6213Z" fill="white"/>
<path d="M185.816 28.8711H184.329V27.2672H185.816C186.387 27.2672 186.721 27.5793 186.721 28.0638C186.721 28.5697 186.387 28.8711 185.816 28.8711ZM184.329 24.7375H185.223C185.762 24.7375 186.053 25.0173 186.053 25.4587C186.053 25.8893 185.762 26.1907 185.223 26.1907H184.329V24.7375ZM186.883 26.5459C187.185 26.2553 187.357 25.8678 187.357 25.3941C187.357 24.3392 186.516 23.6179 185.342 23.6179H183.079V29.9907H185.924C187.163 29.9907 188.025 29.2156 188.025 28.1176C188.014 27.3425 187.573 26.7935 186.883 26.5459Z" fill="white"/>
<path d="M190.784 27.504V23.6179H189.48V30.109H189.9L193.705 26.083V29.9906H195.009V23.5103H194.567L190.784 27.504Z" fill="white"/>
<path d="M196.28 24.802H198.317V29.9907H199.621V24.802H201.68V23.6179H196.28V24.802Z" fill="white"/>
<path d="M204.255 27.504V23.6179H202.951V30.109H203.371L207.176 26.083V29.9906H208.48V23.5103H208.049L204.255 27.504Z" fill="white"/>
<path d="M213.696 26.8904H212.726C212.037 26.8904 211.616 26.449 211.616 25.8247C211.616 25.2219 212.037 24.7697 212.726 24.7697H213.696V26.8904ZM212.748 23.6179C211.304 23.6179 210.28 24.5006 210.28 25.8247C210.28 26.632 210.679 27.2887 211.314 27.6655L209.795 29.9907H211.25L212.543 28.0207C212.608 28.0315 212.672 28.0315 212.737 28.0315H213.685V29.9907H214.989V23.6179H212.748Z" fill="white"/>
<path d="M49.0781 41.5842H50.3821V36.3848H53.1841V35.2114H49.0781V41.5842Z" fill="white"/>
<path d="M57.4196 40.4969C56.2342 40.4969 55.372 39.6357 55.372 38.3978C55.372 37.1706 56.2342 36.2987 57.4196 36.2987C58.5835 36.2987 59.4673 37.1706 59.4673 38.3978C59.4673 39.6357 58.5835 40.4969 57.4196 40.4969ZM57.4089 35.093C55.5337 35.093 54.0249 36.5247 54.0249 38.3978C54.0249 40.2709 55.5337 41.7026 57.4089 41.7026C59.284 41.7026 60.8144 40.2709 60.8144 38.3978C60.8144 36.5247 59.284 35.093 57.4089 35.093Z" fill="white"/>
<path d="M64.6943 38.1933H63.6058V36.3633H64.6943C65.2978 36.3633 65.6642 36.74 65.6642 37.2675C65.6642 37.8165 65.3086 38.1933 64.6943 38.1933ZM64.6943 35.2114H62.291V41.5842H63.595V39.3343H64.6835C66.0306 39.3343 66.979 38.4947 66.979 37.2675C67.0005 36.0188 66.0414 35.2114 64.6943 35.2114Z" fill="white"/>
<path d="M71.5373 40.4969C70.3518 40.4969 69.4897 39.6357 69.4897 38.3978C69.4897 37.1706 70.3518 36.2987 71.5373 36.2987C72.7012 36.2987 73.5849 37.1706 73.5849 38.3978C73.5849 39.6357 72.712 40.4969 71.5373 40.4969ZM71.5265 35.093C69.6514 35.093 68.1426 36.5247 68.1426 38.3978C68.1426 40.2709 69.6514 41.7026 71.5265 41.7026C73.4017 41.7026 74.932 40.2709 74.932 38.3978C74.932 36.5247 73.4017 35.093 71.5265 35.093Z" fill="white"/>
<path d="M80.2023 40.4H77.7128C78.4133 39.5819 78.7689 38.3332 78.7905 36.3848H80.2023V40.4ZM81.5171 35.2114H77.5511V36.2664C77.5511 38.6023 77.0985 39.7326 76.2687 40.4108H75.7729V42.9513H77.077V41.5949H81.0537V42.9513H82.3577V40.4108H81.5063V35.2114H81.5171Z" fill="white"/>
<path d="M85.6121 39.6788L86.4635 37.5259L87.3149 39.6788H85.6121ZM86.248 35.093L83.3921 41.5842H84.7931L85.1487 40.7553H87.7568L88.1124 41.5842H89.5134L86.6683 35.093H86.248Z" fill="white"/>
<path d="M97.2513 38.5377L94.5571 35.093H94.126V41.5842H95.43V38.1825L97.0358 40.1955H97.4668L99.0726 38.1825V41.5842H100.377V35.093H99.9455L97.2513 38.5377Z" fill="white"/>
<path d="M105.28 40.4969C104.095 40.4969 103.232 39.6357 103.232 38.3978C103.232 37.1706 104.095 36.2987 105.28 36.2987C106.444 36.2987 107.328 37.1706 107.328 38.3978C107.328 39.6357 106.444 40.4969 105.28 40.4969ZM105.269 35.093C103.394 35.093 101.885 36.5247 101.885 38.3978C101.885 40.2709 103.394 41.7026 105.269 41.7026C107.144 41.7026 108.675 40.2709 108.675 38.3978C108.664 36.5247 107.144 35.093 105.269 35.093Z" fill="white"/>
<path d="M113.287 36.2987C114.085 36.2987 114.688 36.697 115.109 37.3751L116.089 36.6754C115.529 35.6958 114.505 35.093 113.277 35.093C111.369 35.093 109.871 36.5247 109.871 38.3978C109.871 40.2709 111.369 41.7026 113.266 41.7026C114.505 41.7026 115.54 41.0997 116.089 40.1202L115.109 39.4204C114.688 40.0986 114.085 40.4969 113.287 40.4969C112.102 40.4969 111.229 39.6357 111.229 38.4086C111.229 37.1706 112.102 36.2987 113.287 36.2987Z" fill="white"/>
<path d="M122.825 35.2114H121.273L118.826 38.161V35.2114H117.522V41.5842H118.826V38.2578L121.564 41.5842H123.148L120.378 38.2148L122.825 35.2114Z" fill="white"/>
<path d="M127.168 40.4646H125.681V38.8607H127.168C127.739 38.8607 128.073 39.1729 128.073 39.6573C128.073 40.1632 127.728 40.4646 127.168 40.4646ZM125.67 36.331H126.565C127.103 36.331 127.394 36.6108 127.394 37.0522C127.394 37.4828 127.103 37.7842 126.565 37.7842H125.67V36.331ZM128.224 38.1394C128.526 37.8488 128.698 37.4613 128.698 36.9876C128.698 35.9327 127.858 35.2114 126.683 35.2114H124.42V41.5842H127.265C128.504 41.5842 129.367 40.8091 129.367 39.7111C129.356 38.9253 128.925 38.387 128.224 38.1394Z" fill="white"/>
<path d="M133.408 40.4323H132.104V38.5377H133.408C134.044 38.5377 134.399 38.936 134.399 39.4958C134.41 40.0448 134.054 40.4323 133.408 40.4323ZM133.408 37.4074H132.104V35.2114H130.8V41.5842H133.408C134.776 41.5842 135.736 40.7553 135.736 39.485C135.746 38.2471 134.787 37.4074 133.408 37.4074Z" fill="white"/>
<path d="M138.16 35.2114H136.856V41.5842H138.16V35.2114Z" fill="white"/>
</g>
<defs>
<clipPath id="clip0_5980_8794">
<rect width="215" height="48" fill="white"/>
</clipPath>
</defs>
</svg>
