<svg width="24" height="27" viewBox="0 0 24 27" fill="none" xmlns="http://www.w3.org/2000/svg">
<path d="M16.7853 15.2072L16.7884 15.2086C20.8547 16.9754 23.5 20.8453 23.5 25.0978C23.5 25.2091 23.4931 25.3145 23.4868 25.4054L23.4576 26.0236L23.435 26.5H22.9581H1.04088H0.562963L0.541389 26.0226L0.513113 25.3969C0.512743 25.3913 0.512365 25.3856 0.51198 25.3798C0.506595 25.2988 0.5 25.1997 0.5 25.0978C0.5 20.9517 3.03308 17.1493 6.94275 15.3323L6.94562 15.3286L7.05953 15.2774L7.14655 15.2384L7.15081 15.2365L7.15082 15.2365C7.48956 15.0882 7.83947 14.9531 8.19204 14.8353C8.19244 14.8352 8.19284 14.835 8.19323 14.8349L8.30167 14.7981L8.30806 14.7959L8.30807 14.796C8.47411 14.7421 8.65138 14.6886 8.83189 14.6396C9.05713 14.5777 9.28945 14.5212 9.52324 14.4716L9.52646 14.4709L9.52647 14.4709C9.64741 14.4461 9.76868 14.4233 9.89165 14.4026C9.99724 14.3838 10.1084 14.3644 10.2206 14.3469L10.2324 14.3451L10.2324 14.3452L10.2739 14.3398C10.3593 14.3269 10.4455 14.3147 10.5324 14.3037C10.2945 14.2575 10.0593 14.2 9.82738 14.1311C9.74508 14.1068 9.66713 14.0792 9.59999 14.055L9.43241 13.9975L9.42943 13.9965L9.42398 13.9947C9.34514 13.9683 9.25208 13.9371 9.16002 13.9006L9.15896 13.9001C6.4374 12.8136 4.65654 10.2975 4.65763 7.47256L16.7853 15.2072ZM16.7853 15.2072L16.7187 15.1789C16.7185 15.1788 16.7183 15.1787 16.7181 15.1786C16.5501 15.1064 16.38 15.038 16.2059 14.9737C16.0162 14.9019 15.8246 14.8359 15.6313 14.7744L15.6276 14.7732C15.474 14.7256 15.3205 14.6816 15.1679 14.6392L15.166 14.6387C14.9289 14.574 14.6886 14.5152 14.4405 14.4632L14.4405 14.4632L14.4336 14.4619C14.3512 14.4458 14.2658 14.4299 14.1799 14.4155L14.1285 14.4061C14.1283 14.4061 14.1281 14.406 14.1279 14.406C13.9815 14.379 13.8344 14.3551 13.6856 14.3344L13.6691 14.3319L13.6588 14.3295L13.6308 14.326L13.5943 14.3215C13.5579 14.3163 13.5212 14.3112 13.4841 14.3062M16.7853 15.2072L13.4841 14.3062M13.4841 14.3062L13.488 14.3055C13.57 14.2895 13.6475 14.2697 13.71 14.2538L13.7115 14.2534M13.4841 14.3062L13.7115 14.2534M13.7115 14.2534L13.889 14.2108L13.8891 14.2108C13.9773 14.1906 14.0816 14.1668 14.1872 14.1358L14.1872 14.1358L14.1898 14.135C14.2577 14.1146 14.3219 14.0921 14.3756 14.0729L14.5172 14.0248C14.6225 13.9903 14.7403 13.9511 14.8608 13.9035L14.8608 13.9035L14.8645 13.902C14.9174 13.8806 14.9667 13.8582 15.0078 13.8393L15.01 13.8382L15.0493 13.8199C15.1943 13.7586 15.3497 13.6913 15.507 13.6115L15.5168 13.6065L15.5265 13.6011L15.6151 13.5511C15.7785 13.4636 15.9511 13.3679 16.1287 13.2534C16.2304 13.1885 16.3246 13.1178 16.4016 13.0598L16.6742 12.8598L16.6803 12.8553L16.6863 12.8507C18.3772 11.5295 19.3641 9.58063 19.3691 7.54174L19.3715 7.5028L19.3724 7.4877V7.47256C19.3724 3.6004 16.0447 0.5 12.015 0.5C8.16771 0.5 4.92385 3.34356 4.68028 7.03074C4.68025 7.03115 4.68022 7.03156 4.6802 7.03197L4.67459 7.11144C4.66573 7.22186 4.65764 7.34367 4.65763 7.47235L13.7115 14.2534Z" stroke="white"/>
</svg>
