<svg width="140" height="140" viewBox="0 0 140 140" fill="none" xmlns="http://www.w3.org/2000/svg">
<mask id="path-1-inside-1_3151_30398" fill="white">
<path d="M70 2.74578e-05C108.66 2.57679e-05 140 31.3401 140 70C140 108.66 108.66 140 70 140C31.3401 140 -1.36992e-06 108.66 -3.0598e-06 70C-4.74968e-06 31.3401 31.3401 2.91477e-05 70 2.74578e-05ZM70 119C97.0619 119 119 97.062 119 70C119 42.9381 97.0619 21 70 21C42.938 21 21 42.9381 21 70C21 97.062 42.938 119 70 119Z"/>
</mask>
<path d="M70 2.74578e-05C108.66 2.57679e-05 140 31.3401 140 70C140 108.66 108.66 140 70 140C31.3401 140 -1.36992e-06 108.66 -3.0598e-06 70C-4.74968e-06 31.3401 31.3401 2.91477e-05 70 2.74578e-05ZM70 119C97.0619 119 119 97.062 119 70C119 42.9381 97.0619 21 70 21C42.938 21 21 42.9381 21 70C21 97.062 42.938 119 70 119Z" stroke="#E0E0E0" stroke-width="40" mask="url(#path-1-inside-1_3151_30398)"/>
<mask id="path-2-inside-2_3151_30398" fill="white">
<path d="M70 2.74578e-05C83.8447 2.68526e-05 97.3785 4.10545 108.89 11.7971C120.401 19.4888 129.373 30.4214 134.672 43.2122C139.97 56.003 141.356 70.0777 138.655 83.6563C135.954 97.235 129.287 109.708 119.497 119.497C109.708 129.287 97.235 135.954 83.6563 138.655C70.0776 141.356 56.003 139.97 43.2122 134.672C30.4213 129.373 19.4888 120.401 11.7971 108.89C4.10543 97.3785 -2.61972e-06 83.8447 -3.0598e-06 70L21 70C21 79.6913 23.8738 89.1649 29.258 97.2229C34.6422 105.281 42.2949 111.561 51.2485 115.27C60.2021 118.979 70.0543 119.949 79.5594 118.058C89.0645 116.168 97.7954 111.501 104.648 104.648C111.501 97.7955 116.168 89.0645 118.058 79.5594C119.949 70.0544 118.979 60.2021 115.27 51.2485C111.561 42.2949 105.281 34.6422 97.2229 29.258C89.1649 23.8738 79.6913 21 70 21L70 2.74578e-05Z"/>
</mask>
<path d="M70 2.74578e-05C83.8447 2.68526e-05 97.3785 4.10545 108.89 11.7971C120.401 19.4888 129.373 30.4214 134.672 43.2122C139.97 56.003 141.356 70.0777 138.655 83.6563C135.954 97.235 129.287 109.708 119.497 119.497C109.708 129.287 97.235 135.954 83.6563 138.655C70.0776 141.356 56.003 139.97 43.2122 134.672C30.4213 129.373 19.4888 120.401 11.7971 108.89C4.10543 97.3785 -2.61972e-06 83.8447 -3.0598e-06 70L21 70C21 79.6913 23.8738 89.1649 29.258 97.2229C34.6422 105.281 42.2949 111.561 51.2485 115.27C60.2021 118.979 70.0543 119.949 79.5594 118.058C89.0645 116.168 97.7954 111.501 104.648 104.648C111.501 97.7955 116.168 89.0645 118.058 79.5594C119.949 70.0544 118.979 60.2021 115.27 51.2485C111.561 42.2949 105.281 34.6422 97.2229 29.258C89.1649 23.8738 79.6913 21 70 21L70 2.74578e-05Z" stroke="#C00D0D" stroke-width="40" stroke-linecap="round" mask="url(#path-2-inside-2_3151_30398)"/>
</svg>
